<svg xmlns="http://www.w3.org/2000/svg" width="32" height="32" fill="none" viewBox="0 0 32 32">
  <g clip-path="url(#a)">
    <path fill="#000" d="M16 31.941c-.456 0-.88-.118-1.276-.324L10.685 29.3c-.606-.323-.302-.44-.12-.499.819-.264.971-.322 1.822-.793.09-.059.213-.03.304.03l3.097 1.79c.12.059.273.059.364 0l12.116-6.779c.12-.058.181-.176.181-.322V9.199c0-.147-.06-.264-.181-.323L16.152 2.128c-.121-.059-.273-.059-.364 0L3.672 8.876c-.121.059-.183.205-.183.323v13.528c0 .117.062.264.183.322l3.31 1.85c1.791.88 2.914-.147 2.914-1.174V10.373c0-.176.152-.352.365-.352h1.548c.183 0 .364.147.364.352v13.351c0 2.319-1.305 3.668-3.582 3.668-.699 0-1.246 0-2.794-.733l-3.188-1.76a2.467 2.467 0 0 1-1.276-2.143V9.228c0-.88.486-1.701 1.276-2.141L14.725.307a2.8 2.8 0 0 1 2.55 0l12.117 6.778a2.46 2.46 0 0 1 1.275 2.142v13.528c0 .88-.486 1.701-1.275 2.142l-12.116 6.778a3.202 3.202 0 0 1-1.276.264m3.735-9.303c-5.314 0-6.407-2.347-6.407-4.343 0-.176.152-.352.364-.352h1.579c.182 0 .333.118.333.294.244 1.554.943 2.317 4.161 2.317 2.551 0 3.644-.557 3.644-1.877 0-.763-.304-1.32-4.281-1.702-3.31-.324-5.375-1.026-5.375-3.58 0-2.377 2.064-3.786 5.527-3.786 3.887 0 5.8 1.292 6.043 4.109a.467.467 0 0 1-.092.264c-.06.059-.151.117-.243.117h-1.579a.353.353 0 0 1-.333-.264c-.365-1.613-1.307-2.142-3.796-2.142-2.795 0-3.128.938-3.128 1.644 0 .85.395 1.114 4.16 1.584 3.735.469 5.496 1.144 5.496 3.666-.03 2.584-2.216 4.051-6.073 4.051Z"/>
  </g>
  <defs>
    <clipPath id="a">
      <path fill="#fff" d="M0 0h32v32H0z"/>
    </clipPath>
  </defs>
</svg>
