<svg xmlns="http://www.w3.org/2000/svg" width="32" height="33" fill="none" viewBox="0 0 32 33">
  <path fill="#3A4D54" fill-rule="evenodd" d="M18.45 12.895h2.825v2.875H22.7c.65 0 1.325-.125 1.95-.325.3-.1.65-.25.95-.425-.4-.525-.6-1.175-.65-1.825-.075-.875.1-2.025.7-2.7l.3-.35.35.275c.9.725 1.625 1.7 1.775 2.85 1.075-.325 2.325-.25 3.275.3l.375.225-.2.4c-.8 1.55-2.475 2.05-4.1 1.95-2.45 6.075-7.75 8.95-14.2 8.95-3.325 0-6.375-1.25-8.125-4.2l-.025-.05-.25-.525c-.6-1.3-.775-2.725-.65-4.15l.05-.425h2.4v-2.85H9.45v-2.8h5.625V7.27h3.375v5.625Z" clip-rule="evenodd"/>
  <path fill="#00AADA" d="M27.6 13.97c.2-1.475-.9-2.625-1.6-3.175-.775.9-.9 3.3.325 4.3-.7.6-2.125 1.175-3.625 1.175H4.65c-.15 1.55.125 2.975.75 4.2l.2.375c.125.225.275.425.425.65.75.05 1.425.075 2.05.05 1.225-.025 2.225-.175 3-.425.125-.05.225.025.275.125.05.125-.025.225-.125.275-.1.025-.2.075-.325.1-.6.175-1.25.275-2.075.325h-.15c-.325.025-.675.025-1.05.025-.4 0-.775 0-1.225-.025 1.5 1.7 3.85 2.7 6.8 2.7 6.25 0 11.55-2.775 13.875-8.975 1.675.175 3.275-.25 4-1.675-1.125-.675-2.625-.45-3.475-.025Z"/>
  <path fill="#28B8EB" d="M27.6 13.97c.2-1.475-.9-2.625-1.6-3.175-.775.9-.9 3.3.325 4.3-.7.6-2.125 1.175-3.625 1.175h-17c-.075 2.375.8 4.175 2.375 5.25 1.225-.025 2.225-.175 3-.425.125-.05.225.025.275.125.05.125-.025.225-.125.275-.1.025-.2.075-.325.1-.6.175-1.3.3-2.125.35l-.025-.025c2.125 1.1 5.2 1.075 8.75-.275 3.95-1.525 7.65-4.425 10.225-7.725-.05.025-.1.025-.125.05Z"/>
  <path fill="#028BB8" d="M4.675 18.145c.1.825.35 1.6.725 2.325l.2.375c.125.225.275.425.425.65.75.05 1.425.075 2.05.05 1.225-.025 2.225-.175 3-.425.125-.05.225.025.275.125.05.125-.025.225-.125.275-.1.025-.2.075-.325.1-.6.175-1.3.3-2.125.35h-.1c-.325.025-.675.025-1.025.025-.4 0-.8 0-1.225-.025 1.5 1.7 3.875 2.7 6.825 2.7 5.35 0 10-2.025 12.7-6.5H4.675v-.025Z"/>
  <path fill="#019BC6" d="M5.875 18.145c.325 1.45 1.075 2.6 2.2 3.375 1.225-.025 2.225-.175 3-.425.125-.05.225.025.275.125.05.125-.025.225-.125.275-.1.025-.2.075-.325.1-.6.175-1.3.3-2.15.35 2.125 1.1 5.2 1.075 8.725-.275 2.125-.825 4.2-2.05 6.05-3.525H5.875Z"/>
  <path fill="#00ACD3" fill-rule="evenodd" d="M7.1 13.37h2.45v2.45H7.1v-2.45Zm.2.2h.2v2.025h-.2V13.57Zm.35 0h.2v2.025h-.2V13.57Zm.375 0h.2v2.025h-.2V13.57Zm.375 0h.2v2.025h-.2V13.57Zm.375 0h.2v2.025h-.2V13.57Zm.375 0h.2v2.025h-.2V13.57Zm.75-3h2.45v2.45H9.9v-2.45Zm.225.2h.2v2.025h-.2V10.77Zm.35 0h.2v2.025h-.2V10.77Zm.375 0h.2v2.025h-.2V10.77Zm.375 0h.2v2.025h-.2V10.77Zm.35 0h.2v2.025h-.2V10.77Zm.375 0h.2v2.025h-.2V10.77Z" clip-rule="evenodd"/>
  <path fill="#23C2EE" fill-rule="evenodd" d="M9.9 13.37h2.45v2.45H9.9v-2.45Zm.225.2h.2v2.025h-.2V13.57Zm.35 0h.2v2.025h-.2V13.57Zm.375 0h.2v2.025h-.2V13.57Zm.375 0h.2v2.025h-.2V13.57Zm.35 0h.2v2.025h-.2V13.57Zm.375 0h.2v2.025h-.2V13.57Z" clip-rule="evenodd"/>
  <path fill="#00ACD3" fill-rule="evenodd" d="M12.725 13.37h2.45v2.45h-2.45v-2.45Zm.2.2h.2v2.025h-.2V13.57Zm.375 0h.2v2.025h-.2V13.57Zm.375 0h.2v2.025h-.2V13.57Zm.35 0h.2v2.025h-.2V13.57Zm.375 0h.2v2.025h-.2V13.57Zm.375 0h.2v2.025h-.2V13.57Z" clip-rule="evenodd"/>
  <path fill="#23C2EE" fill-rule="evenodd" d="M12.725 10.57h2.45v2.45h-2.45v-2.45Zm.2.2h.2v2.025h-.2V10.77Zm.375 0h.2v2.025h-.2V10.77Zm.375 0h.2v2.025h-.2V10.77Zm.35 0h.2v2.025h-.2V10.77Zm.375 0h.2v2.025h-.2V10.77Zm.375 0h.2v2.025h-.2V10.77Zm.775 2.6H18v2.45h-2.45v-2.45Zm.2.2h.2v2.025h-.2V13.57Zm.375 0h.2v2.025h-.2V13.57Zm.35 0h.2v2.025h-.2V13.57Zm.375 0h.2v2.025h-.2V13.57Zm.375 0h.2v2.025h-.2V13.57Zm.375 0h.2v2.025h-.2V13.57Z" clip-rule="evenodd"/>
  <path fill="#00ACD3" fill-rule="evenodd" d="M15.55 10.57H18v2.45h-2.45v-2.45Zm.2.2h.2v2.025h-.2V10.77Zm.375 0h.2v2.025h-.2V10.77Zm.35 0h.2v2.025h-.2V10.77Zm.375 0h.2v2.025h-.2V10.77Zm.375 0h.2v2.025h-.2V10.77Zm.375 0h.2v2.025h-.2V10.77Z" clip-rule="evenodd"/>
  <path fill="#23C2EE" fill-rule="evenodd" d="M15.55 7.745H18v2.45h-2.45v-2.45Zm.2.2h.2V9.97h-.2V7.945Zm.375 0h.2V9.97h-.2V7.945Zm.35 0h.2V9.97h-.2V7.945Zm.375 0h.2V9.97h-.2V7.945Zm.375 0h.2V9.97h-.2V7.945Zm.375 0h.2V9.97h-.2V7.945Z" clip-rule="evenodd"/>
  <path fill="#00ACD3" fill-rule="evenodd" d="M18.375 13.37h2.45v2.45h-2.45v-2.45Zm.2.2h.2v2.025h-.2V13.57Zm.35 0h.2v2.025h-.2V13.57Zm.375 0h.2v2.025h-.2V13.57Zm.375 0h.2v2.025h-.2V13.57Zm.375 0h.2v2.025h-.2V13.57Zm.375 0h.2v2.025h-.2V13.57Z" clip-rule="evenodd"/>
  <path fill="#D4EEF1" fill-rule="evenodd" d="M12.2 19.77c.375 0 .675.3.675.675 0 .375-.3.675-.675.675a.672.672 0 0 1-.675-.675c0-.375.3-.675.675-.675Z" clip-rule="evenodd"/>
  <path fill="#3A4D54" fill-rule="evenodd" d="M12.2 19.97c.05 0 .125 0 .175.025a.21.21 0 0 0-.1.175c0 .1.1.2.2.2a.21.21 0 0 0 .175-.1c.025.05.025.125.025.175a.475.475 0 1 1-.475-.475ZM.275 18.395h31.35c-.675-.175-2.15-.4-1.925-1.3-1.25 1.425-4.225 1-5 .3-.85 1.225-5.75.75-6.075-.2-1.05 1.25-4.325 1.25-5.375 0-.35.95-5.25 1.425-6.075.2-.75.7-3.75 1.125-5-.3.275.875-1.225 1.125-1.9 1.3Z" clip-rule="evenodd"/>
  <path fill="#BFDBE0" d="M14 24.645c-1.675-.8-2.575-1.875-3.1-3.05-.625.175-1.375.3-2.225.35-.325.025-.675.025-1.025.025-.425 0-.85 0-1.3-.025 1.5 1.5 3.4 2.675 6.875 2.7H14Z"/>
  <path fill="#D4EEF1" d="M11.525 22.67c-.225-.325-.45-.7-.625-1.075-.625.175-1.375.3-2.225.35.575.3 1.425.6 2.85.725Z"/>
</svg>
