<svg xmlns="http://www.w3.org/2000/svg" width="32" height="33" fill="none" viewBox="0 0 32 33">
  <path fill="url(#a)" d="m28.764 6.114 1.865 11.977-3.447 2.005 1.582-13.982Z"/>
  <path fill="url(#b)" d="M28.764 6.114 18.289 1.566l-2.923 2.426 13.398 2.122Z"/>
  <path fill="url(#c)" d="M21.142 30.824 4.889 17.875l-3.265 9.816 19.518 3.133Z"/>
  <path fill="url(#d)" d="M23.405 22.64 1.371 15.07l19.77 15.754 2.264-8.183Z"/>
  <path fill="url(#e)" d="M1.371 1.774V15.07l25.39 8.726 2.003-17.682L1.37 1.774Z"/>
  <path fill="#000" d="M6.857 7.016h18.285v18.286H6.858V7.015Z"/>
  <path fill="#fff" d="M8.713 9.393h2.953c2.377 0 4.024 1.633 4.024 3.764v.02c0 2.135-1.647 3.786-4.024 3.786H8.713v-7.57Zm1.664 1.502v4.572h1.289a2.158 2.158 0 0 0 2.28-2.261v-.028a2.177 2.177 0 0 0-2.28-2.283h-1.289Zm5.607 2.304v-.021a3.888 3.888 0 0 1 3.962-3.916 4.15 4.15 0 0 1 2.975 1.039l-1.048 1.265a2.8 2.8 0 0 0-1.979-.768c-1.218 0-2.175 1.073-2.175 2.36v.02c0 1.383.954 2.402 2.295 2.402a2.663 2.663 0 0 0 1.572-.451v-1.085H19.91v-1.439h3.288v3.288a4.908 4.908 0 0 1-3.233 1.202c-2.359 0-3.98-1.661-3.98-3.896ZM8.54 21.87h6.857v1.142H8.54V21.87Z"/>
  <defs>
    <linearGradient id="a" x1="28.134" x2="28.974" y1="12.626" y2="20.076" gradientUnits="userSpaceOnUse">
      <stop offset=".16" stop-color="#21D789"/>
      <stop offset=".54" stop-color="#419FBC"/>
      <stop offset="1" stop-color="#6B57FF"/>
    </linearGradient>
    <linearGradient id="b" x1="20.357" x2="22.53" y1="9.412" y2="3.881" gradientUnits="userSpaceOnUse">
      <stop stop-color="#6B57FF"/>
      <stop offset=".95" stop-color="#21D789"/>
    </linearGradient>
    <linearGradient id="c" x1="8.388" x2="10.475" y1="16.354" y2="25.513" gradientUnits="userSpaceOnUse">
      <stop stop-color="#6B57FF"/>
      <stop offset=".02" stop-color="#685CFB"/>
      <stop offset=".28" stop-color="#4A91CA"/>
      <stop offset=".51" stop-color="#34B7A7"/>
      <stop offset=".69" stop-color="#26CE91"/>
      <stop offset=".8" stop-color="#21D789"/>
    </linearGradient>
    <linearGradient id="d" x1="3.165" x2="28.776" y1="16.204" y2="30.407" gradientUnits="userSpaceOnUse">
      <stop offset=".08" stop-color="#21D789"/>
      <stop offset=".89" stop-color="#6B57FF"/>
    </linearGradient>
    <linearGradient id="e" x1="3.326" x2="29.094" y1="12.791" y2="12.838" gradientUnits="userSpaceOnUse">
      <stop offset=".31" stop-color="#21D789"/>
      <stop offset=".49" stop-color="#59A3B2"/>
      <stop offset=".77" stop-color="#B74AF7"/>
      <stop offset="1" stop-color="#FF45ED"/>
    </linearGradient>
  </defs>
</svg>
