<svg xmlns="http://www.w3.org/2000/svg" width="32" height="32" fill="none" viewBox="0 0 32 32">
  <g clip-path="url(#a)">
    <path fill="#38BDF8" d="M16.001 6.4c-4.267 0-6.932 2.133-8 6.4 1.6-2.133 3.467-2.933 5.6-2.4 1.217.304 2.087 1.187 3.051 2.165C18.221 14.158 20.036 16 24.001 16c4.266 0 6.932-2.133 8-6.4-1.6 2.133-3.467 2.934-5.6 2.4-1.217-.304-2.087-1.187-3.052-2.165-1.567-1.592-3.382-3.434-7.348-3.434Zm-8 9.6c-4.266 0-6.932 2.133-8 6.4 1.6-2.133 3.466-2.933 5.6-2.4 1.217.304 2.088 1.186 3.051 2.165 1.569 1.592 3.384 3.434 7.349 3.434 4.266 0 6.932-2.132 8-6.399-1.6 2.133-3.467 2.933-5.6 2.4-1.217-.304-2.087-1.187-3.051-2.166C13.782 17.843 11.966 16 8 16Z"/>
  </g>
  <defs>
    <clipPath id="a">
      <path fill="#fff" d="M0 0h32v32H0z"/>
    </clipPath>
  </defs>
</svg>
