<svg xmlns="http://www.w3.org/2000/svg" width="32" height="33" fill="none" viewBox="0 0 32 33">
  <g clip-path="url(#a)">
    <path fill="#00618A" d="M29.422 24.756c-1.743-.048-3.074.115-4.213.595-.323.136-.839.14-.892.545.178.186.206.464.347.694.272.438.73 1.028 1.14 1.338.447.337.908.698 1.388.99.853.52 1.805.818 2.626 1.338.484.308.964.694 1.437 1.041.234.171.391.438.694.545v-.049c-.16-.203-.2-.482-.347-.694l-.645-.644c-.63-.836-1.43-1.57-2.279-2.18-.678-.487-2.195-1.145-2.477-1.933l-.05-.05c.48-.054 1.043-.228 1.487-.347.745-.2 1.411-.148 2.18-.347l1.04-.297v-.198c-.388-.398-.665-.927-1.089-1.288-1.11-.945-2.321-1.889-3.568-2.676-.692-.436-1.546-.72-2.28-1.09-.247-.124-.68-.19-.842-.397-.385-.49-.595-1.112-.892-1.684a64.238 64.238 0 0 1-1.784-3.767c-.376-.86-.621-1.707-1.09-2.477-2.25-3.7-4.671-5.933-8.423-8.127-.8-.467-1.76-.652-2.776-.893l-1.636-.099c-.333-.138-.678-.546-.991-.744C4.244 1.075 1.056-.633.135 1.613c-.581 1.417.869 2.8 1.387 3.519.365.503.83 1.068 1.09 1.635.172.373.201.746.348 1.14.36.97.674 2.027 1.14 2.923.235.454.495.932.793 1.338.181.25.495.36.545.743-.307.43-.324 1.094-.496 1.636-.775 2.443-.482 5.478.644 7.284.346.556 1.16 1.745 2.28 1.29.979-.4.76-1.635 1.04-2.726.064-.247.025-.429.149-.595v.05l.893 1.783c.66 1.064 1.83 2.175 2.824 2.925.514.389.92 1.06 1.586 1.288v-.05h-.05c-.129-.201-.331-.284-.495-.445-.388-.38-.82-.854-1.14-1.29-.903-1.225-1.701-2.567-2.428-3.963-.347-.667-.649-1.402-.942-2.08-.113-.263-.111-.66-.347-.794-.32.497-.793.9-1.04 1.486-.396.939-.448 2.084-.595 3.27-.087.032-.048.01-.099.05-.69-.166-.933-.876-1.19-1.487-.648-1.54-.769-4.022-.198-5.797.148-.46.816-1.905.545-2.33-.129-.422-.554-.667-.793-.99a7.776 7.776 0 0 1-.793-1.388c-.531-1.202-.778-2.551-1.338-3.766-.267-.58-.719-1.169-1.09-1.684-.41-.573-.87-.995-1.189-1.686-.113-.246-.267-.64-.1-.891.054-.171.13-.243.298-.298.287-.222 1.088.074 1.387.198.795.33 1.458.645 2.132 1.09.322.215.65.629 1.04.744h.446c.697.16 1.479.049 2.13.247 1.153.35 2.185.896 3.123 1.487 2.855 1.804 5.191 4.37 6.789 7.434.256.493.368.963.595 1.486.456 1.055 1.03 2.14 1.485 3.172.454 1.028.895 2.068 1.537 2.924.337.45 1.637.691 2.23.941.414.175 1.094.358 1.486.595.75.452 1.477.991 2.181 1.486.35.248 1.433.792 1.487 1.24v-.001ZM7.271 5.876a3.517 3.517 0 0 0-.892.099v.05h.049c.174.355.48.584.694.89l.495 1.042.05-.049c.307-.217.447-.562.445-1.09-.123-.13-.14-.292-.248-.447-.14-.206-.415-.322-.593-.495Z"/>
  </g>
  <defs>
    <clipPath id="a">
      <path fill="#fff" d="M0 .195h32v32H0z"/>
    </clipPath>
  </defs>
</svg>
