<svg xmlns="http://www.w3.org/2000/svg" width="32" height="33" fill="none" viewBox="0 0 32 33">
  <path fill="url(#a)" d="M5.316 28.008 1.37 4.633l7.293-3.026 4.658 2.767 4.266-2.302 8.89 3.414-4.986 25.338-16.177-2.816Z"/>
  <path fill="url(#b)" d="m30.629 11.475-3.777-9.326-6.85-.583L9.427 11.728l2.846 13.095 5.315 3.728 13.041-7.738-3.2-6.001 3.2-3.337Z"/>
  <path fill="url(#c)" d="m24.767 10.085 2.662 4.726 3.2-3.336-2.35-5.809-3.512 4.419Z"/>
  <path fill="#000" d="M6.857 7.053h18.285v18.285H6.858V7.053Z"/>
  <path fill="#fff" d="M9.137 21.882h6.857v1.143H9.137v-1.143Zm6.491-12.553-1.02 4-1.168-4h-1.16l-1.171 4.001-1.018-4H8.49l1.96 6.86h1.286l1.121-3.972 1.11 3.972h1.301l1.957-6.861h-1.597Zm1.884 5.882.892-1.07a3.158 3.158 0 0 0 2.055.836c.61 0 .993-.245.993-.65v-.018c0-.384-.237-.58-1.387-.874-1.386-.354-2.279-.739-2.279-2.104v-.021c0-1.246 1.002-2.073 2.407-2.073a3.962 3.962 0 0 1 2.554.875l-.786 1.14a3.224 3.224 0 0 0-1.789-.677c-.58 0-.884.266-.884.61v.021c0 .451.305.61 1.485.915 1.395.365 2.182.865 2.182 2.066v.018c0 1.365-1.043 2.134-2.527 2.134a4.37 4.37 0 0 1-2.916-1.1"/>
  <defs>
    <linearGradient id="a" x1="11.846" x2="19.366" y1="2.198" y2="29.469" gradientUnits="userSpaceOnUse">
      <stop offset=".28" stop-color="#07C3F2"/>
      <stop offset=".94" stop-color="#087CFA"/>
    </linearGradient>
    <linearGradient id="b" x1="14.201" x2="26.976" y1="5.661" y2="24.467" gradientUnits="userSpaceOnUse">
      <stop offset=".14" stop-color="#FCF84A"/>
      <stop offset=".37" stop-color="#07C3F2"/>
    </linearGradient>
    <linearGradient id="c" x1="26.887" x2="28.559" y1="8.006" y2="13.967" gradientUnits="userSpaceOnUse">
      <stop offset=".28" stop-color="#07C3F2"/>
      <stop offset=".94" stop-color="#087CFA"/>
    </linearGradient>
  </defs>
</svg>
