<svg xmlns="http://www.w3.org/2000/svg" width="32" height="33" fill="none" viewBox="0 0 32 33">
  <g clip-path="url(#a)">
    <path fill="#0ACF83" d="M11.375 32.445c2.975 0 5.375-2.4 5.375-5.375v-5.375h-5.375A5.367 5.367 0 0 0 6 27.07c0 2.975 2.4 5.375 5.375 5.375Z"/>
    <path fill="#A259FF" d="M6 16.32c0-2.975 2.4-5.375 5.375-5.375h5.375v10.75h-5.375A5.367 5.367 0 0 1 6 16.32Z"/>
    <path fill="#F24E1E" d="M6 5.57C6 2.595 8.4.195 11.375.195h5.375v10.75h-5.375A5.367 5.367 0 0 1 6 5.57Z"/>
    <path fill="#FF7262" d="M16.75.195h5.375c2.975 0 5.375 2.4 5.375 5.375s-2.4 5.375-5.375 5.375H16.75V.195Z"/>
    <path fill="#1ABCFE" d="M27.5 16.32c0 2.975-2.4 5.375-5.375 5.375a5.367 5.367 0 0 1-5.375-5.375c0-2.975 2.4-5.375 5.375-5.375s5.375 2.4 5.375 5.375Z"/>
  </g>
  <defs>
    <clipPath id="a">
      <path fill="#fff" d="M0 .195h32v32H0z"/>
    </clipPath>
  </defs>
</svg>
