<svg xmlns="http://www.w3.org/2000/svg" width="20" height="21" fill="none" viewBox="0 0 20 21">
  <g clip-path="url(#a)">
    <path fill="#FF3E00" d="M17.255 2.717C15.399.059 11.733-.73 9.083.96L4.428 3.929a5.344 5.344 0 0 0-2.419 3.578 5.723 5.723 0 0 0-.09 1c.004.91.227 1.807.651 2.613a5.375 5.375 0 0 0-.798 1.997 5.7 5.7 0 0 0 .976 4.307c1.856 2.658 5.53 3.446 8.171 1.757l4.65-2.97a5.334 5.334 0 0 0 2.413-3.58c.06-.33.09-.664.09-.998a5.657 5.657 0 0 0-.643-2.611 5.374 5.374 0 0 0 .887-2.993 5.694 5.694 0 0 0-1.061-3.31v-.002Z"/>
    <path fill="#fff" d="M8.628 17.674a3.694 3.694 0 0 1-3.967-1.473 3.422 3.422 0 0 1-.586-2.59 3.33 3.33 0 0 1 .113-.434l.088-.267.237.18a6.044 6.044 0 0 0 1.822.912l.172.052-.016.173v.09c0 .215.067.426.192.601a1.11 1.11 0 0 0 1.194.453c.1-.026.196-.068.286-.125l4.65-2.984a.978.978 0 0 0 .454-.828 1.034 1.034 0 0 0-.197-.6 1.114 1.114 0 0 0-1.196-.443.977.977 0 0 0-.284.125l-1.773 1.133a3.427 3.427 0 0 1-.945.415 3.695 3.695 0 0 1-3.967-1.472 3.428 3.428 0 0 1-.586-2.59A3.226 3.226 0 0 1 5.77 5.85l4.655-2.967c.292-.186.611-.326.945-.416a3.75 3.75 0 0 1 2.65.302 3.7 3.7 0 0 1 1.327 1.169 3.432 3.432 0 0 1 .577 2.592 3.333 3.333 0 0 1-.112.435l-.088.267-.237-.174a6 6 0 0 0-1.822-.911l-.172-.054.016-.173v-.09c0-.216-.067-.427-.192-.604a1.109 1.109 0 0 0-.914-.479 1.08 1.08 0 0 0-.277.043.958.958 0 0 0-.286.125L7.185 7.882a.976.976 0 0 0-.437.651 1.127 1.127 0 0 0-.021.173c0 .215.067.425.191.6a1.11 1.11 0 0 0 1.194.443.975.975 0 0 0 .287-.125l1.776-1.14c.298-.188.616-.327.945-.415a3.697 3.697 0 0 1 3.969 1.471 3.427 3.427 0 0 1 .583 2.597 3.219 3.219 0 0 1-1.45 2.153l-4.647 2.967a3.414 3.414 0 0 1-.947.417Z"/>
  </g>
  <defs>
    <clipPath id="a">
      <path fill="#fff" d="M0 .07h20v20H0z"/>
    </clipPath>
  </defs>
</svg>
