<svg xmlns="http://www.w3.org/2000/svg" width="32" height="33" fill="none" viewBox="0 0 32 33">
  <g clip-path="url(#a)">
    <path fill="#F34F29" d="M31.184 14.79 17.405 1.01a2.033 2.033 0 0 0-2.874 0L11.67 3.873l3.63 3.63a2.413 2.413 0 0 1 3.056 3.076l3.498 3.498a2.417 2.417 0 1 1-.138 4.518 2.42 2.42 0 0 1-1.31-3.154l-3.262-3.263-.001 8.586a2.419 2.419 0 1 1-1.988-.07v-8.665a2.418 2.418 0 0 1-1.313-3.172l-3.578-3.578-9.448 9.447a2.033 2.033 0 0 0 0 2.875l13.78 13.779c.793.793 2.08.793 2.874 0l13.715-13.715a2.034 2.034 0 0 0 0-2.875Z"/>
  </g>
  <defs>
    <clipPath id="a">
      <path fill="#fff" d="M0 .195h32v32H0z"/>
    </clipPath>
  </defs>
</svg>
