<svg xmlns="http://www.w3.org/2000/svg" width="20" height="21" fill="none" viewBox="0 0 20 21">
  <g clip-path="url(#a)">
    <path fill="#fff" d="M3.542 7.414h15.574v11.511H3.542V7.415Z"/>
    <path fill="#007ACC" d="M.234 10.056v9.766h19.532V.291H.234v9.765Zm15.74-.78c.467.108.892.352 1.221.702.181.189.339.399.47.625 0 .025-.845.596-1.359.914-.018.013-.094-.068-.176-.192a1.108 1.108 0 0 0-.917-.551c-.593-.041-.974.27-.97.78a.719.719 0 0 0 .084.367c.13.27.371.43 1.13.759 1.4.601 1.998.998 2.37 1.562.415.625.507 1.635.226 2.382-.312.812-1.078 1.364-2.16 1.547a5.986 5.986 0 0 1-1.488-.016 3.594 3.594 0 0 1-1.988-1.036c-.18-.198-.53-.716-.508-.753.057-.043.117-.08.18-.114l.723-.4.561-.325.118.173c.197.283.45.524.74.71.625.328 1.478.282 1.9-.097a.848.848 0 0 0 .108-1.082c-.156-.217-.469-.4-1.342-.78-1.008-.435-1.442-.704-1.84-1.132a2.577 2.577 0 0 1-.535-.977 3.908 3.908 0 0 1-.034-1.25c.207-.973.937-1.653 2.003-1.854a4.953 4.953 0 0 1 1.482.04v-.003Zm-4.585.818v.8H8.853v7.223H7.055v-7.225H4.513v-.78c-.008-.27-.002-.54.018-.809.013-.014 1.563-.014 3.438-.014h3.41l.01.805Z"/>
  </g>
  <defs>
    <clipPath id="a">
      <path fill="#fff" d="M0 .07h20v20H0z"/>
    </clipPath>
  </defs>
</svg>
