<svg width="41" height="40" viewBox="0 0 41 40" fill="none" xmlns="http://www.w3.org/2000/svg">
<g id="devicon:netlify" clip-path="url(#clip0_112_20)">
<path id="Vector" d="M25.6438 25.8141H22.9009L22.6716 25.585V19.1644C22.6716 18.0219 22.2228 17.1366 20.8453 17.1056C20.1363 17.0869 19.3253 17.1056 18.4584 17.14L18.3284 17.2728V25.5819L18.0994 25.811H15.3563L15.1272 25.5819V14.6138L15.3563 14.3847H21.5291C23.9281 14.3847 25.8725 16.3285 25.8725 18.7278V25.585L25.6438 25.8141Z" fill="#014847"/>
<path id="Vector_2" d="M18.9194 37.4694V29.2412L19.1484 29.0119H21.8975L22.1266 29.2409V37.4694L21.8975 37.6984H19.1487L18.9194 37.4694ZM18.9194 10.9575V2.72938L19.1484 2.5H21.8975L22.1266 2.72906V10.9575L21.8975 11.1866H19.1487L18.9194 10.9575ZM40.2741 21.7028H29.3028L29.0737 21.4738V18.725L29.3028 18.4959H40.2741L40.5031 18.725V21.4741L40.2741 21.7028ZM11.7003 21.7028H0.729062L0.5 21.4738V18.725L0.729062 18.4959H11.7003L11.9294 18.725V21.4741L11.7003 21.7028ZM9.04719 10.5675V10.1897L10.9328 8.30437H11.3103L14.1925 11.1866V13.1834L13.9263 13.4497H11.9294L9.04719 10.5675ZM11.3103 31.8909H10.9328L9.0475 30.0056V29.6278L11.9297 26.7459H13.9266L14.1925 27.0119V29.0088L11.3103 31.8909Z" fill="#05BDBA"/>
</g>
<defs>
<clipPath id="clip0_112_20">
<rect width="40" height="40" fill="white" transform="translate(0.5)"/>
</clipPath>
</defs>
</svg>
