<svg xmlns="http://www.w3.org/2000/svg" width="32" height="33" fill="none" viewBox="0 0 32 33">
  <g clip-path="url(#a)">
    <path fill="#F37036" d="M28.28 6.712C23.041-.07 13.297-1.322 6.514 3.916-.265 9.154-1.517 18.898 3.722 25.68c5.239 6.78 14.984 8.03 21.764 2.791 6.779-5.238 8.03-14.979 2.793-21.76Z"/>
    <path fill="#fff" d="M22.77 6.236a2.51 2.51 0 0 0-2.293 2.215 2.507 2.507 0 0 0 3.781 2.437l.04.039c.177-.102.342-.223.491-.363a2.585 2.585 0 0 0-.039-3.592l-2.211 2.197-.039-.039 2.211-2.198a2.51 2.51 0 0 0-1.941-.695Zm-2.912 3.597c-1.06-.002-2.79 1.2-7.016 5.426l.02.021a.175.175 0 0 0-.046-.008l-1.59 1.577a.258.258 0 0 0 .232.44l2.729-.582a.076.076 0 0 0 .023-.042l.06.062-.93.923h-.045l-5.521 5.565 1.771 1.706a.312.312 0 0 0 .369.037.332.332 0 0 0 .161-.34l-.258-1.124a.132.132 0 0 1 0-.155 29.326 29.326 0 0 0 6.684-4.396l-1.134-1.134.022-.004-.673-.672.043-.043.046.046-.024.023 1.784 1.823c3.42-3.24 5.848-5.842 5.217-7.594a.958.958 0 0 0-.277-.552.998.998 0 0 0-.12-.076l-.062-.066-.016.017a.996.996 0 0 0-.146-.073l.072-.073c-.448-.4-.82-.73-1.375-.732ZM7.736 23.248 6.442 24.54a.258.258 0 0 0-.03.418.259.259 0 0 0 .146.061l3.168.22-1.991-1.992Z"/>
    <path fill="#F37036" d="M22.988 6.023a2.763 2.763 0 0 0-1.94.792 2.747 2.747 0 0 0-.598 2.91c-1.185-.507-2.788.378-7.776 5.365a.279.279 0 0 0-.01.023.246.246 0 0 0-.03.016l-1.577 1.59a.492.492 0 0 0-.09.582.502.502 0 0 0 .426.246l.079-.05 2.106-.45-1.008 1.017a.242.242 0 0 0-.013.041l-4.938 4.95a.2.2 0 0 0-.048.06L6.3 24.386a.493.493 0 0 0-.104.51.5.5 0 0 0 .414.317l3.155.22a.25.25 0 0 0 .13-.104.223.223 0 0 0 0-.259l-.007-.006a.551.551 0 0 0 .177-.145.56.56 0 0 0 .101-.469l-.246-1.047a31.674 31.674 0 0 0 6.583-4.215c.02.011.04.02.063.026a.265.265 0 0 0 .168-.077c3.387-3.208 5.378-5.406 5.378-7.15a1.997 1.997 0 0 0-.107-.713c.305.126.63.197.96.207l-.003.001c.455-.013.9-.138 1.296-.362a.21.21 0 0 0 .155-.014c.191-.112.365-.251.517-.413a2.717 2.717 0 0 0 0-3.879.251.251 0 0 0-.029-.022 2.763 2.763 0 0 0-1.914-.77Zm-.022.443c.505.003.995.17 1.396.478l-2.017 2.03a.25.25 0 0 0-.019.024.207.207 0 0 0-.06.138.209.209 0 0 0 .079.162l1.525 1.525a2.26 2.26 0 0 1-2.507-.478 2.283 2.283 0 0 1-.488-2.473 2.266 2.266 0 0 1 2.09-1.406Zm1.78.858c.33.399.51.9.508 1.418 0 .607-.243 1.188-.672 1.616a2.496 2.496 0 0 1-.274.224L23.076 9.37l-.241-.24.066-.067 1.843-1.74Zm-.092 1.048a.195.195 0 0 0-.137.008.182.182 0 0 0-.078.246.558.558 0 0 1-.064.582.16.16 0 0 0-.049.122c.001.046.018.09.049.123.033.013.07.013.104 0a.17.17 0 0 0 .168-.052.891.891 0 0 0 .116-.944v.001a.195.195 0 0 0-.109-.086Zm-4.819 1.68a1.4 1.4 0 0 1 .828.307 1.19 1.19 0 0 0-.67.335l-5.702 5.677-1.12-1.12c2.957-2.942 4.765-4.48 5.89-4.983a1.4 1.4 0 0 1 .774-.215Zm.991.74a.73.73 0 0 1 .511.212.701.701 0 0 1 .15.815.717.717 0 0 1-.176.233l-6.063 5.276-.654-.654 5.722-5.67a.726.726 0 0 1 .51-.211Zm.749 1.675c-.423 1.676-2.662 3.946-4.997 6.152l-.944-.943 5.94-5.209Zm-8.733 3.115.068.068.879.878-2.408.515 1.46-1.46Zm1.448 1.46.001.001.292.299.005.02.019.004.062.063.205.21-1.346.165.762-.762Zm.967 1.02.894.893a31.752 31.752 0 0 1-6.463 4.164.36.36 0 0 0-.195.413l.259 1.125a.078.078 0 0 1 0 .091.078.078 0 0 1-.104 0L8.123 23.21l4.702-4.77 2.432-.379Zm-7.483 5.484.217.204 1.123 1.123-2.504-.162 1.163-1.165Z"/>
  </g>
  <defs>
    <clipPath id="a">
      <path fill="#fff" d="M0 .195h32v32H0z"/>
    </clipPath>
  </defs>
</svg>
