<svg xmlns="http://www.w3.org/2000/svg" width="32" height="33" fill="none" viewBox="0 0 32 33">
  <g clip-path="url(#a)">
    <path fill="#FFA000" d="M4.369 26.014 8.306.811A.728.728 0 0 1 9.667.58l4.074 7.597 1.623-3.091a.728.728 0 0 1 1.288 0l10.992 20.928H4.37Z"/>
    <path fill="#F57C00" d="m17.976 16.197-4.237-8.023-9.37 17.84 13.607-9.817Z"/>
    <path fill="#FFCA28" d="M27.644 26.014 24.628 7.346a.728.728 0 0 0-1.232-.393L4.37 26.014l10.528 5.905a2.183 2.183 0 0 0 2.128 0l10.62-5.905Z"/>
    <path fill="#fff" fill-opacity=".2" d="M24.628 7.346a.728.728 0 0 0-1.232-.393L19.62 10.74l-2.97-5.654a.727.727 0 0 0-1.287 0l-1.624 3.091L9.665.58a.728.728 0 0 0-1.36.233L4.37 26.014h-.013l.012.015.104.05L23.391 7.14a.728.728 0 0 1 1.233.393l2.991 18.5.03-.018-3.017-18.668ZM4.402 25.98 8.307.99a.728.728 0 0 1 1.36-.232l4.074 7.598 1.623-3.092a.727.727 0 0 1 1.288 0l2.91 5.534L4.401 25.98h.001Z"/>
    <path fill="#A52714" d="M17.025 31.74a2.182 2.182 0 0 1-2.128 0L4.394 25.853l-.026.162 10.529 5.902a2.183 2.183 0 0 0 2.127 0l10.62-5.902-.027-.168-10.593 5.894Z" opacity=".2"/>
  </g>
  <defs>
    <clipPath id="a">
      <path fill="#fff" d="M0 .195h32v32H0z"/>
    </clipPath>
  </defs>
</svg>
