<svg xmlns="http://www.w3.org/2000/svg" width="32" height="33" fill="none" viewBox="0 0 32 33">
  <g clip-path="url(#a)">
    <path fill="#94795D" fill-rule="evenodd" d="M21.815 25.23c.042-.081.082-.153.117-.227.022-.048.055-.057.103-.056.283.008.566.017.85.02.24.002.481-.002.723-.005.271-.003.543-.018.814-.01.361.01.713.081 1.04.242.39.192.685.485.887.87.126.245.205.512.232.786.043.402.015.795-.113 1.18a2.096 2.096 0 0 1-.874 1.114 2.84 2.84 0 0 1-1.05.405c-.399.075-.799.051-1.2.052-.438.002-.877-.007-1.316-.012-.077-.001-.088-.016-.067-.089l.018-.067c.043-.135.066-.14.203-.163a.701.701 0 0 0 .271-.104c.046-.03.065-.11.083-.17a.633.633 0 0 0 .017-.17c.006-.856.013-1.712.016-2.568.001-.216-.004-.433-.016-.649-.009-.15-.09-.254-.27-.29-.14-.028-.28-.05-.421-.074l-.047-.015Zm4.019 2.073c-.02-.17-.029-.342-.059-.51a1.75 1.75 0 0 0-.56-1.03c-.5-.445-1.104-.513-1.737-.46-.144.012-.175.061-.177.21-.003.21-.007.42-.007.63v1.997c0 .19.002.38.008.568.006.194.076.357.265.432.299.119.613.133.927.084.5-.076.85-.368 1.086-.805.186-.347.238-.726.254-1.116Zm1.217 2.268a.432.432 0 0 1 .089-.268c.014-.021.063-.02.097-.027l.287-.057c.1-.021.154-.09.168-.189.01-.065.019-.131.02-.198.006-.524.011-1.048.014-1.572.003-.525 0-1.05 0-1.575l-.002-.1c-.01-.17-.091-.257-.259-.282l-.363-.055c-.045-.006-.061-.027-.045-.067.028-.068.055-.138.095-.2.014-.022.064-.03.098-.03.173.003.346.016.52.016l1.51-.01c.291 0 .572.051.833.19.288.153.448.39.494.713a.92.92 0 0 1-.302.85c-.102.094-.233.155-.352.231l-.038.024c.11.04.214.075.315.117.297.121.534.312.659.615.098.24.098.49.04.739-.091.389-.348.647-.68.843-.313.184-.652.29-1.012.309-.333.017-.667.01-1 .014l-.193.001c-.321-.007-.643-.015-.964-.024l-.029-.008Zm1.384-1.522h.004c0 .164-.003.329 0 .493.002.107-.002.216.021.319.035.153.105.291.277.335.23.06.47.071.705.031.294-.05.529-.198.657-.479.096-.208.11-.429.077-.654a.847.847 0 0 0-.463-.654 1.253 1.253 0 0 0-.551-.157c-.22-.008-.438-.009-.657-.015-.062-.002-.07.03-.07.08v.7Zm.466-1.119c.12-.006.256-.008.39-.021a.594.594 0 0 0 .535-.402c.048-.126.046-.255.047-.385a.75.75 0 0 0-.516-.732c-.249-.089-.505-.09-.763-.083-.105.002-.152.048-.153.153l-.015 1.373c-.001.054.022.078.075.08l.4.017Z" clip-rule="evenodd"/>
    <path fill="#50382B" fill-rule="evenodd" d="m2.636 29.307-.018.236h-.484l-.886.013-.028.002c-.043-.005-.12-.005-.121-.018-.013-.07-.009-.144-.006-.217 0-.008.03-.018.046-.022l.23-.052c.143-.037.194-.099.2-.247.008-.166.016-.333.016-.5.003-.41 0-.82.002-1.231 0-.096-.033-.168-.123-.207a11 11 0 0 0-.32-.136c-.052-.02-.118-.032-.112-.1.006-.07.07-.088.13-.102.251-.057.502-.113.752-.174.08-.02.157-.053.254-.087.004.052.014.102.013.151l-.015.236c0 .026.014.062.033.076.012.01.053-.007.073-.023.213-.162.439-.302.697-.384.399-.127.742-.01.982.335.084.121.084.121.202.036a2.63 2.63 0 0 1 .647-.36c.517-.187 1.014.05 1.194.571.065.19.09.384.09.584l-.005 1.324c0 .11.036.172.14.206.116.038.237.064.369.099l-.03.228h-.425c-.336.003-.672.005-1.008.012-.058.002-.074-.013-.077-.067-.01-.176-.01-.175.154-.215l.056-.014c.161-.044.215-.094.216-.257.004-.47.013-.94-.01-1.409-.025-.486-.41-.745-.882-.62a1.3 1.3 0 0 0-.422.203c-.044.032-.052.068-.049.122.014.207.022.415.024.622.003.363-.002.725 0 1.088 0 .147.05.204.196.238l.215.05.04.008c.003.07.006.138.003.207-.002.044-.036.047-.073.047-.21-.006-.42-.013-.63-.012-.255 0-.51.008-.765.012h-.06c0-.073-.003-.143.002-.213.002-.017.031-.04.051-.045l.252-.054c.107-.026.158-.08.164-.19.028-.502.049-1.004.002-1.507a.925.925 0 0 0-.082-.286c-.129-.284-.419-.403-.753-.318-.159.04-.302.114-.437.205a.2.2 0 0 0-.095.174l.003 1.504.003.193c.003.135.06.206.194.235.086.02.173.032.27.05Z" clip-rule="evenodd"/>
    <path fill="#4F382B" fill-rule="evenodd" d="M17.75 26.517c.039.188.038.358-.1.486s-.312.085-.481.056c.015.09.033.166.041.243.062.572-.184.997-.715 1.24a1.85 1.85 0 0 1-.63.143c-.108.008-.203.09-.213.18-.01.09.046.182.159.209.133.032.272.04.409.056.293.034.59.05.88.102.438.079.683.461.606.902-.069.392-.296.677-.612.896-.534.37-1.119.477-1.742.289-.356-.108-.607-.342-.694-.721a.482.482 0 0 1 .146-.49c.17-.153.354-.29.532-.433l.057-.058-.066-.046c-.18-.086-.326-.204-.382-.408-.02-.07 0-.115.06-.15.1-.06.199-.122.298-.184.046-.03.092-.06.135-.093.06-.045.054-.078-.016-.104a.973.973 0 0 1-.423-.284c-.189-.225-.242-.493-.227-.776.024-.443.265-.734.655-.922.465-.223.93-.237 1.404-.034.175.075.359.091.547.078a.547.547 0 0 0 .372-.177Zm-1.71 3.17c-.349-.003-.458.04-.663.248a.542.542 0 0 0 .001.792.99.99 0 0 0 .63.286c.282.029.559.017.815-.124.272-.15.407-.43.346-.712-.05-.233-.222-.34-.43-.4a2.778 2.778 0 0 0-.7-.09Zm-.685-2.227c.013.097.018.195.04.29.055.245.162.46.406.57.287.129.653.073.779-.33a1.212 1.212 0 0 0-.028-.818.625.625 0 0 0-.228-.296c-.249-.173-.698-.196-.881.188a.987.987 0 0 0-.088.396Z" clip-rule="evenodd"/>
    <path fill="#4F372B" fill-rule="evenodd" d="M11.838 26.455c.009.043.027.091.028.14 0 .093-.01.185-.015.278v.08l.079-.06a2.09 2.09 0 0 1 .715-.409c.485-.146.97.12 1.129.614.06.189.083.382.086.578l.012 1.31c.002.156.02.184.168.23.084.025.17.044.257.057.048.008.069.026.066.073v.043c-.001.18-.014.189-.189.189-.42-.001-.839.001-1.258.005-.125 0-.126.005-.138-.119l-.003-.071c.008-.107.01-.105.115-.121.071-.01.141-.027.21-.045.07-.018.104-.07.114-.14.005-.036.011-.071.01-.107-.005-.477.002-.954-.024-1.43-.02-.386-.314-.615-.701-.589a1.013 1.013 0 0 0-.518.186c-.103.072-.124.176-.123.289.002.445.005.892.01 1.338.002.098.004.195.014.292.01.106.046.149.15.172.1.022.201.035.308.053l.009.081c.003.192-.017.206-.203.205a80.48 80.48 0 0 0-1.3.006c-.069.001-.098-.02-.096-.087l-.001-.028c-.011-.173-.006-.18.157-.207l.077-.016c.176-.04.221-.087.224-.266.008-.567.011-1.135.017-1.703 0-.081-.03-.145-.106-.178a13.522 13.522 0 0 0-.322-.136c-.06-.025-.127-.04-.13-.122-.001-.058.061-.11.146-.127.17-.035.342-.063.51-.105.168-.042.332-.098.516-.153Z" clip-rule="evenodd"/>
    <path fill="#4F382B" fill-rule="evenodd" d="M21.216 27.938c-.008.53-.146.959-.52 1.28-.476.409-1.216.548-1.822.242a1.24 1.24 0 0 1-.572-.589 1.863 1.863 0 0 1-.139-1.247c.098-.425.355-.733.74-.932.396-.205.814-.285 1.253-.177a1.37 1.37 0 0 1 1.036 1.166c.014.102.02.204.024.257Zm-.644.287-.021-.002c0-.05.002-.1-.001-.15-.018-.312-.088-.609-.269-.87a.906.906 0 0 0-.708-.413.68.68 0 0 0-.725.513c-.15.52-.1 1.028.165 1.506a.932.932 0 0 0 .514.442c.449.158.846-.047.963-.506.043-.17.056-.346.082-.52Z" clip-rule="evenodd"/>
    <path fill="#4F372B" fill-rule="evenodd" d="M10.205 27.979c-.01.38-.1.732-.334 1.038-.252.327-.598.502-.992.576-.465.087-.902.008-1.275-.304a1.289 1.289 0 0 1-.38-.555 1.912 1.912 0 0 1-.083-1.09c.087-.397.31-.7.658-.903.401-.235.835-.34 1.298-.234.595.136.938.523 1.065 1.11.025.119.029.241.043.362Zm-.652.25-.017-.002v-.071c-.01-.35-.078-.682-.286-.972a.903.903 0 0 0-.626-.388c-.431-.061-.713.195-.807.543-.122.454-.083.903.105 1.333.118.269.304.478.59.58.445.158.849-.052.961-.509.042-.167.054-.342.08-.513Z" clip-rule="evenodd"/>
    <path fill="#439934" fill-rule="evenodd" d="M20.59 8.581c.307.887.528 1.792.6 2.73.09 1.164.05 2.32-.196 3.465l-.032.091c-.076 0-.155-.009-.23.003-.636.1-1.271.203-1.906.306-.657.107-1.314.209-1.97.322-.232.04-.52-.007-.613.314l-.045.015.032-1.92-.033-4.631.306-.052c.5-.082 1-.165 1.502-.245.597-.095 1.195-.187 1.793-.28l.793-.118Z" clip-rule="evenodd"/>
    <path fill="#45A538" fill-rule="evenodd" d="M15.566 21.423c-.323-.277-.657-.543-.966-.835-1.664-1.57-2.882-3.418-3.482-5.646a9.145 9.145 0 0 1-.31-1.87c-.025-.443-.061-.89-.03-1.332.083-1.173.253-2.335.597-3.465l.02-.027c.033.045.08.084.098.135.336.989.67 1.979 1 2.97 1.043 3.112 2.084 6.225 3.128 9.338.02.06.073.11.111.165l-.166.567Z" clip-rule="evenodd"/>
    <path fill="#46A037" fill-rule="evenodd" d="m20.59 8.581-.792.118c-.598.093-1.196.185-1.793.28-.501.08-1.001.163-1.502.245l-.306.052-.002-.2c-.01-.163-.027-.327-.03-.491l-.034-3.139c-.008-.655-.02-1.31-.033-1.964a49.634 49.634 0 0 0-.035-1.22c-.01-.218-.046-.435-.06-.654-.008-.125.003-.252.006-.378.156.303.308.607.469.907.253.474.657.824 1.02 1.205a13.434 13.434 0 0 1 3.092 5.24Z" clip-rule="evenodd"/>
    <path fill="#409433" fill-rule="evenodd" d="m16.198 15.827.045-.015c.094-.321.381-.273.614-.313.655-.114 1.312-.216 1.969-.323.635-.102 1.27-.206 1.906-.306.075-.012.154-.002.23-.002-.118.424-.212.857-.362 1.27-.172.467-.379.923-.598 1.37a9.401 9.401 0 0 1-1.213 1.865c-.367.44-.776.848-1.185 1.25-.226.223-.493.404-.741.604l-.065-.044-.231-.198-.24-.526a7.927 7.927 0 0 1-.267-1.879l.005-.107.033-.463c.01-.159.025-.317.032-.475.024-.569.045-1.138.068-1.708Z" clip-rule="evenodd"/>
    <path fill="#4FAA41" fill-rule="evenodd" d="M16.198 15.827c-.023.57-.044 1.14-.068 1.709-.007.158-.021.316-.032.474l-.146.056c-.325-.956-.65-1.9-.967-2.848-.525-1.568-1.044-3.138-1.569-4.706-.423-1.266-.85-2.53-1.279-3.794-.02-.06-.078-.106-.118-.158l.935-1.72c.032.056.075.109.095.169.433 1.28.864 2.56 1.292 3.841.557 1.668 1.11 3.336 1.667 5.004.022.066.059.128.094.203l.128-.15-.032 1.92Z" clip-rule="evenodd"/>
    <path fill="#4AA73C" fill-rule="evenodd" d="M12.019 6.56c.04.052.098.099.118.158.43 1.263.856 2.528 1.28 3.794.524 1.568 1.043 3.138 1.568 4.706.317.947.642 1.892.966 2.848l.146-.056-.032.464-.03.107c-.05.507-.094 1.015-.155 1.521-.032.254-.098.503-.148.754-.038-.055-.09-.104-.111-.165-1.045-3.112-2.085-6.226-3.128-9.339-.331-.99-.665-1.98-1-2.97-.018-.05-.066-.09-.099-.134l.625-1.688Z" clip-rule="evenodd"/>
    <path fill="#57AE47" fill-rule="evenodd" d="m16.23 13.908-.128.149c-.035-.075-.072-.137-.094-.203-.557-1.668-1.11-3.336-1.667-5.004-.428-1.281-.86-2.562-1.292-3.841-.02-.06-.063-.113-.095-.168L14.11 3.32c.037.048.089.091.107.146.321.94.64 1.88.956 2.822.296.88.586 1.76.885 2.638.02.06.09.1.137.15l.002.2.033 4.632Z" clip-rule="evenodd"/>
    <path fill="#60B24F" fill-rule="evenodd" d="M16.195 9.077c-.047-.05-.117-.092-.137-.15-.298-.879-.59-1.76-.885-2.639a635.73 635.73 0 0 0-.956-2.822c-.018-.055-.07-.098-.107-.146.376-.369.74-.75 1.132-1.101.347-.312.627-.647.64-1.14l.027-.098.1.25c-.003.125-.014.252-.006.377.014.218.05.436.06.654.018.406.026.813.035 1.22.013.654.025 1.31.033 1.964l.034 3.138c.003.165.02.329.03.493Z" clip-rule="evenodd"/>
    <path fill="#A9AA88" fill-rule="evenodd" d="M15.732 20.856c.05-.251.117-.5.148-.754.062-.506.104-1.014.155-1.522l.013-.002.013.003a7.91 7.91 0 0 0 .266 1.879c-.034.044-.081.083-.1.133-.138.392-.269.787-.409 1.178-.018.053-.072.095-.11.142l-.142-.49.166-.567Z" clip-rule="evenodd"/>
    <path fill="#B6B598" fill-rule="evenodd" d="M15.709 21.913c.037-.047.09-.088.11-.142.139-.391.27-.786.409-1.177.017-.05.065-.09.099-.134l.24.526c-.048.067-.113.128-.14.202l-.458 1.348c-.02.055-.084.093-.127.138l-.133-.76Z" clip-rule="evenodd"/>
    <path fill="#C2C1A7" fill-rule="evenodd" d="M15.842 22.674c.043-.046.107-.084.127-.138l.458-1.348c.026-.075.092-.136.14-.203l.232.198c-.113.111-.175.239-.137.4l-.07.232c-.033.039-.08.073-.095.119-.16.459-.313.92-.474 1.379-.021.058-.078.104-.117.155l-.064-.794Z" clip-rule="evenodd"/>
    <path fill="#CECDB7" fill-rule="evenodd" d="M15.905 23.468c.04-.051.097-.097.117-.155.162-.459.315-.92.475-1.38.015-.045.062-.079.094-.119l-.097 1.06c-.026.03-.064.056-.076.09l-.324.927c-.023.064-.066.12-.1.18-.03-.04-.084-.078-.087-.12-.01-.16-.002-.322-.002-.483Z" clip-rule="evenodd"/>
    <path fill="#DBDAC7" fill-rule="evenodd" d="M15.994 24.07c.034-.059.078-.115.1-.178l.324-.927c.012-.035.05-.061.076-.091l.003.695-.233.596-.27-.095Z" clip-rule="evenodd"/>
    <path fill="#EBE9DC" fill-rule="evenodd" d="m16.264 24.165.233-.596.047.706-.28-.11Z" clip-rule="evenodd"/>
    <path fill="#CECDB7" fill-rule="evenodd" d="M16.662 21.584c-.038-.162.024-.29.136-.4l.065.043-.201.357Z" clip-rule="evenodd"/>
    <path fill="#4FAA41" fill-rule="evenodd" d="m16.06 18.58-.012-.001-.013.002.03-.107-.005.107Z" clip-rule="evenodd"/>
  </g>
  <defs>
    <clipPath id="a">
      <path fill="#fff" d="M0 .195h32v32H0z"/>
    </clipPath>
  </defs>
</svg>
