<svg xmlns="http://www.w3.org/2000/svg" width="32" height="33" fill="none" viewBox="0 0 32 33">
  <g clip-path="url(#a)">
    <path fill="#000" d="M28.051 6.728 17.95.73a3.808 3.808 0 0 0-3.898.002L3.95 6.73C2.744 7.445 2 8.768 2 10.2v11.994c0 1.432.742 2.754 1.949 3.47L14.05 31.66a3.8 3.8 0 0 0 1.949.535 3.82 3.82 0 0 0 1.949-.535l10.103-5.997c1.205-.715 1.95-2.04 1.95-3.47V10.198c0-1.43-.742-2.755-1.95-3.47ZM20.23 25.454l.015.862c0 .105-.066.223-.146.265l-.512.295c-.08.04-.15-.008-.15-.113l-.008-.848c-.436.182-.88.225-1.162.112-.053-.021-.077-.099-.056-.19l.185-.779a.33.33 0 0 1 .09-.16.174.174 0 0 1 .049-.035c.03-.016.059-.02.083-.008.305.101.693.053 1.068-.134.477-.241.795-.728.79-1.21-.006-.44-.241-.619-.817-.624-.733.002-1.419-.142-1.43-1.224-.007-.888.453-1.815 1.187-2.398l-.008-.87c0-.107.064-.225.147-.268l.495-.316c.08-.04.15.01.15.115l.008.87c.364-.144.68-.184.966-.117.062.016.092.101.065.2l-.193.771a.35.35 0 0 1-.088.156.203.203 0 0 1-.051.037.13.13 0 0 1-.075.013c-.131-.03-.442-.096-.932.15-.514.26-.693.707-.69 1.04.005.395.206.516.907.527.934.016 1.336.422 1.347 1.362.013.921-.48 1.914-1.234 2.52Zm5.295-1.448c0 .08-.01.155-.078.193l-2.554 1.552c-.066.04-.12.006-.12-.075v-.658c0-.08.048-.123.115-.163l2.517-1.505c.067-.04.12-.005.12.075v.58ZM27.28 9.258l-9.558 5.902c-1.19.696-2.069 1.478-2.072 2.916v11.777c0 .859.348 1.416.881 1.58a3.259 3.259 0 0 1-.53.05c-.56 0-1.111-.152-1.596-.44l-10.1-5.996c-.988-.586-1.601-1.68-1.601-2.856V10.197c0-1.175.613-2.27 1.6-2.856l10.104-5.997a3.14 3.14 0 0 1 1.596-.44c.56 0 1.111.153 1.595.44L27.703 7.34a3.304 3.304 0 0 1 1.553 2.31c-.34-.715-1.095-.907-1.976-.393Z"/>
  </g>
  <defs>
    <clipPath id="a">
      <path fill="#fff" d="M0 .195h32v32H0z"/>
    </clipPath>
  </defs>
</svg>
