<svg xmlns="http://www.w3.org/2000/svg" width="32" height="32" fill="none" viewBox="0 0 32 32">
  <g opacity=".3">
    <path fill="#222" d="M27.324 8.967a1.8 1.8 0 0 1 1.43-.707h.454l-5.856 7.657 5.981 7.82h-.453a1.798 1.798 0 0 1-1.43-.706l-4.769-6.235-4.769 6.235a1.8 1.8 0 0 1-1.43.706h-.453l5.98-7.82-5.854-7.657h.453a1.8 1.8 0 0 1 1.43.707l4.642 6.072 4.644-6.072Z"/>
    <path fill="#222" fill-rule="evenodd" d="M7.417 22.861c2.566.936 5.248-.125 6.612-2.196a1.432 1.432 0 0 1 1.195-.664h.34c-1.253 3.25-4.96 5.142-8.484 3.874-2.697-.971-4.413-3.636-4.413-6.503V14.4A6.68 6.68 0 0 1 9.98 7.759c3.458.324 6.028 3.364 6.028 6.836V16.8H3.735v.592c0 2.403 1.425 4.647 3.682 5.47Zm1.92-14.066a5.613 5.613 0 0 0-5.602 5.602v1.336h11.208V14.4a5.613 5.613 0 0 0-5.604-5.605" clip-rule="evenodd"/>
  </g>
</svg>
