<svg xmlns="http://www.w3.org/2000/svg" width="32" height="33" fill="none" viewBox="0 0 32 33">
  <g clip-path="url(#a)">
    <path fill="#01579B" d="m6.526 25.67-5.474-5.475C.402 19.529 0 18.588 0 17.668c0-.426.24-1.092.421-1.473L5.474 5.67l1.052 20Z"/>
    <path fill="#40C4FF" d="M25.265 6.721 19.79 1.247C19.313.767 18.317.195 17.475.195c-.725 0-1.435.146-1.894.421L5.477 5.67l19.788 1.05ZM13.052 32.195h13.264v-5.684l-9.895-3.16-9.053 3.16 5.684 5.684Z"/>
    <path fill="#29B6F6" d="M5.474 22.721c0 1.69.212 2.104 1.052 2.948l.842.842h18.948l-9.262-10.525L5.474 5.67v17.05Z"/>
    <path fill="#01579B" d="M22.317 5.667H5.474L26.316 26.51H32V13.457l-6.738-6.738c-.946-.948-1.785-1.052-2.945-1.052Z"/>
    <path fill="#fff" d="M6.738 25.879c-.842-.845-1.052-1.678-1.052-3.158V5.88l-.21-.21v17.052c-.002 1.48-.002 1.89 1.262 3.157l.63.63-.63-.63Z" opacity=".2"/>
    <path fill="#263238" d="M31.79 13.248V26.3h-5.683l.21.211H32V13.457l-.21-.21Z" opacity=".2"/>
    <path fill="#fff" d="M25.265 6.721C24.22 5.677 23.366 5.67 22.107 5.67H5.477l.21.21h16.42c.628 0 2.214-.107 3.158.841Z" opacity=".2"/>
    <path fill="url(#b)" d="M31.79 13.248 25.266 6.72 19.79 1.247C19.313.767 18.317.195 17.475.195c-.725 0-1.435.146-1.894.421L5.477 5.67.423 16.195c-.18.384-.42 1.05-.42 1.473 0 .92.404 1.859 1.051 2.527l5.044 5.008c.12.149.261.3.428.466l.21.21.63.63 5.475 5.475.209.209h13.26v-5.684h5.684V13.457l-.204-.21Z" opacity=".2"/>
  </g>
  <defs>
    <radialGradient id="b" cx="0" cy="0" r="1" gradientTransform="translate(1599.65 1599.9) scale(1599.77)" gradientUnits="userSpaceOnUse">
      <stop stop-color="#fff" stop-opacity=".1"/>
      <stop offset="1" stop-color="#fff" stop-opacity="0"/>
    </radialGradient>
    <clipPath id="a">
      <path fill="#fff" d="M0 .195h32v32H0z"/>
    </clipPath>
  </defs>
</svg>
