<svg xmlns="http://www.w3.org/2000/svg" width="32" height="33" fill="none" viewBox="0 0 32 33">
  <g clip-path="url(#a)">
    <path fill="url(#b)" d="m22.437 5.245 9.35 7.777-3.367 6.85-5.637-1.563h-4.876l4.53-13.064Z"/>
    <path fill="url(#c)" d="m13.017 10.295-1.81 9.577-.174 3.253-4.563 1.977-6.47.697 1.963-20.69L13.687.195l7.223 4.737-7.893 5.363Z"/>
    <path fill="url(#d)" d="m13.017 10.295.88 18.454-2.924 3.446L0 25.8l9.01-13.427 4.007-2.077Z"/>
    <path fill="url(#e)" d="M25.09 8.949H14.003L23.8.195l1.29 8.754Z"/>
    <path fill="url(#f)" d="m32 28.822-9.76 3.313-12.997-3.66 3.774-18.18 1.506-1.346 7.914-.744-.717 7.947 6.293-2.44L32 28.822Z"/>
    <path fill="#000" d="M6 6.195h20v20H6v-20Z"/>
    <path fill="#fff" d="M8.493 22.415h7.5v1.25h-7.5v-1.25ZM8.5 8.695h3.067c1.768 0 2.848 1.04 2.87 2.545v.065c0 1.734-1.35 2.634-3.03 2.634h-1.24v2.246H8.5v-7.49Zm2.953 3.777c.81 0 1.29-.473 1.307-1.1v-.053c0-.74-.513-1.137-1.333-1.137h-1.26v2.29h1.286Zm3.877-.007v-.02a3.805 3.805 0 0 1 3.903-3.873 3.862 3.862 0 0 1 2.954 1.153l-1.047 1.21a2.775 2.775 0 0 0-1.917-.846c-1.249 0-2.153 1.027-2.173 2.29v.066c0 1.284.89 2.354 2.173 2.354.78 0 1.282-.276 1.81-.734l.08-.07.08-.073 1.047 1.057a3.82 3.82 0 0 1-3.07 1.333 3.785 3.785 0 0 1-3.84-3.847Z"/>
  </g>
  <defs>
    <linearGradient id="b" x1="-630.095" x2="1274.24" y1="736.577" y2="736.577" gradientUnits="userSpaceOnUse">
      <stop stop-color="#21D789"/>
      <stop offset="1" stop-color="#07C3F2"/>
    </linearGradient>
    <linearGradient id="c" x1="-400.636" x2="2675.43" y1="2700.86" y2="430.168" gradientUnits="userSpaceOnUse">
      <stop offset=".01" stop-color="#FCF84A"/>
      <stop offset=".11" stop-color="#A7EB62"/>
      <stop offset=".21" stop-color="#5FE077"/>
      <stop offset=".27" stop-color="#32DA84"/>
      <stop offset=".31" stop-color="#21D789"/>
      <stop offset=".58" stop-color="#21D789"/>
      <stop offset=".6" stop-color="#21D789"/>
      <stop offset=".69" stop-color="#20D68C"/>
      <stop offset=".76" stop-color="#1ED497"/>
      <stop offset=".83" stop-color="#19D1A9"/>
      <stop offset=".9" stop-color="#13CCC2"/>
      <stop offset=".97" stop-color="#0BC6E1"/>
      <stop offset="1" stop-color="#07C3F2"/>
    </linearGradient>
    <linearGradient id="d" x1="586.854" x2="1204.83" y1="2549.97" y2="610.644" gradientUnits="userSpaceOnUse">
      <stop stop-color="#21D789"/>
      <stop offset=".16" stop-color="#24D888"/>
      <stop offset=".3" stop-color="#2FD985"/>
      <stop offset=".43" stop-color="#41DC80"/>
      <stop offset=".55" stop-color="#5AE079"/>
      <stop offset=".67" stop-color="#7AE46F"/>
      <stop offset=".79" stop-color="#A1EA64"/>
      <stop offset=".9" stop-color="#CFF157"/>
      <stop offset="1" stop-color="#FCF84A"/>
    </linearGradient>
    <linearGradient id="e" x1="-93.659" x2="984.27" y1="1265.5" y2="-183.855" gradientUnits="userSpaceOnUse">
      <stop stop-color="#21D789"/>
      <stop offset=".09" stop-color="#23D986"/>
      <stop offset=".17" stop-color="#2ADE7B"/>
      <stop offset=".25" stop-color="#36E669"/>
      <stop offset=".27" stop-color="#3BEA62"/>
      <stop offset=".35" stop-color="#47EB61"/>
      <stop offset=".49" stop-color="#67ED5D"/>
      <stop offset=".69" stop-color="#9AF156"/>
      <stop offset=".92" stop-color="#E0F64D"/>
      <stop offset="1" stop-color="#FCF84A"/>
    </linearGradient>
    <linearGradient id="f" x1="2419.63" x2="-173.744" y1="1216.22" y2="1192.09" gradientUnits="userSpaceOnUse">
      <stop offset=".39" stop-color="#FCF84A"/>
      <stop offset=".46" stop-color="#ECF74C"/>
      <stop offset=".61" stop-color="#C1F451"/>
      <stop offset=".82" stop-color="#7EEF5A"/>
      <stop offset="1" stop-color="#3BEA62"/>
    </linearGradient>
    <clipPath id="a">
      <path fill="#fff" d="M0 .195h32v32H0z"/>
    </clipPath>
  </defs>
</svg>
