<svg xmlns="http://www.w3.org/2000/svg" width="32" height="29" fill="none" viewBox="0 0 32 29">
  <g clip-path="url(#a)">
    <path fill="#00D8FF" d="M26.31 9.228c-.34-.117-.684-.225-1.03-.325.058-.237.112-.472.16-.702.78-3.785.27-6.835-1.472-7.839-1.669-.962-4.4.041-7.156 2.441-.272.237-.538.48-.797.731-.174-.166-.35-.33-.53-.49C12.595.48 9.698-.603 7.959.404c-1.668.966-2.162 3.832-1.46 7.42.07.355.15.708.237 1.06-.41.116-.806.24-1.184.372C2.164 10.437 0 12.288 0 14.209c0 1.983 2.323 3.972 5.851 5.178.287.097.575.187.866.27-.095.379-.178.76-.252 1.143-.669 3.525-.146 6.324 1.517 7.283 1.718.99 4.602-.027 7.41-2.482.227-.2.45-.405.667-.615.28.27.57.534.865.789 2.72 2.34 5.406 3.285 7.067 2.323 1.717-.993 2.275-4 1.55-7.658a18.107 18.107 0 0 0-.191-.856c.202-.06.4-.121.595-.186 3.668-1.215 6.055-3.18 6.055-5.19 0-1.927-2.233-3.79-5.69-4.98Zm-.795 8.873a18.06 18.06 0 0 1-.538.168 32.08 32.08 0 0 0-1.62-4.054 32.067 32.067 0 0 0 1.557-3.995c.328.095.645.195.951.3 2.962 1.02 4.768 2.527 4.768 3.689 0 1.236-1.95 2.842-5.118 3.892ZM24.2 20.705c.32 1.618.365 3.08.153 4.224-.19 1.027-.573 1.712-1.047 1.986-1.009.584-3.165-.175-5.491-2.176a19.661 19.661 0 0 1-.805-.734 32.085 32.085 0 0 0 2.682-3.406 31.894 31.894 0 0 0 4.334-.668c.066.264.123.522.174.774Zm-13.292 6.11c-.985.347-1.77.357-2.244.084-1.01-.582-1.429-2.83-.856-5.844.068-.357.145-.71.233-1.063 1.31.29 2.762.499 4.312.625A33.29 33.29 0 0 0 15.1 24.01c-.198.192-.402.38-.61.562-1.24 1.085-2.485 1.855-3.582 2.242Zm-4.615-8.722c-1.56-.533-2.85-1.226-3.732-1.983-.794-.68-1.195-1.354-1.195-1.901 0-1.166 1.737-2.652 4.635-3.662.351-.123.72-.238 1.101-.347a32.66 32.66 0 0 0 1.56 4.042 33.303 33.303 0 0 0-1.58 4.099 16.89 16.89 0 0 1-.79-.248ZM7.84 7.561c-.601-3.074-.202-5.392.803-5.974 1.07-.62 3.438.264 5.933 2.48.163.144.323.292.48.443a32.766 32.766 0 0 0-2.726 3.373 33.4 33.4 0 0 0-4.27.664 20.004 20.004 0 0 1-.22-.986Zm13.803 3.409a43.455 43.455 0 0 0-.973-1.6c1.021.128 2 .3 2.918.51a29.58 29.58 0 0 1-1.024 2.755 47.81 47.81 0 0 0-.92-1.665Zm-5.629-5.483c.63.683 1.262 1.446 1.883 2.273-1.26-.06-2.522-.06-3.782 0a30.147 30.147 0 0 1 1.9-2.273Zm-5.665 5.492a40.316 40.316 0 0 0-.903 1.655 30.174 30.174 0 0 1-1.017-2.77 30.875 30.875 0 0 1 2.901-.498 40.18 40.18 0 0 0-.98 1.613Zm1.01 8.169a29.108 29.108 0 0 1-2.949-.474c.283-.913.63-1.861 1.037-2.825a40.168 40.168 0 0 0 1.912 3.299Zm4.693 3.878a30.632 30.632 0 0 1-1.925-2.304c.613.024 1.237.037 1.872.037.652 0 1.297-.015 1.932-.043a29.058 29.058 0 0 1-1.879 2.31Zm6.525-7.227a29.03 29.03 0 0 1 1.074 2.815c-.927.212-1.93.383-2.985.51.339-.537.666-1.08.983-1.63a43.36 43.36 0 0 0 .928-1.695Zm-2.112 1.013a44.843 44.843 0 0 1-1.536 2.477 41.11 41.11 0 0 1-2.93.103c-.996 0-1.964-.031-2.897-.092a38.816 38.816 0 0 1-2.93-5.059c.422-.877.876-1.737 1.362-2.58a38.366 38.366 0 0 1 1.551-2.47 38.702 38.702 0 0 1 5.833.001 41.174 41.174 0 0 1 1.542 2.462 44.9 44.9 0 0 1 1.38 2.568 42.163 42.163 0 0 1-1.375 2.59Zm2.82-15.266c1.071.618 1.488 3.11.815 6.379-.043.208-.091.42-.144.636a32.73 32.73 0 0 0-4.279-.676 32.09 32.09 0 0 0-2.705-3.376c.24-.231.485-.456.736-.675 2.363-2.056 4.57-2.868 5.577-2.288ZM16 11.351a2.858 2.858 0 1 1 0 5.715 2.858 2.858 0 0 1 0-5.715Z"/>
  </g>
  <defs>
    <clipPath id="a">
      <path fill="#fff" d="M0 0h32v28.5H0z"/>
    </clipPath>
  </defs>
</svg>
