<svg xmlns="http://www.w3.org/2000/svg" width="33" height="33" fill="none" viewBox="0 0 33 33">
  <g clip-path="url(#a)">
    <path fill="#E0234E" d="M18.918.195c-.232 0-.448.05-.647.117.423.281.655.655.771 1.078.009.058.025.1.034.158.008.05.016.1.016.149.034.73-.19.821-.348 1.253a1.773 1.773 0 0 0 .116 1.634.991.991 0 0 0 .1.183c-.316-2.1 1.435-2.415 1.758-3.07.025-.572-.448-.954-.82-1.22a1.832 1.832 0 0 0-.98-.282Zm2.638.473c-.033.191-.008.141-.016.24-.008.067-.008.15-.017.217a1.714 1.714 0 0 1-.058.199 1.857 1.857 0 0 1-.066.199c-.033.066-.058.124-.091.19-.025.034-.042.067-.067.1l-.05.075a2.8 2.8 0 0 1-.124.166c-.05.05-.091.108-.15.149v.008c-.05.042-.099.092-.157.133-.174.133-.373.232-.556.357-.058.041-.116.075-.166.124a1.188 1.188 0 0 0-.157.133c-.059.05-.1.1-.15.158-.041.05-.091.108-.124.166a1.947 1.947 0 0 0-.116.174c-.034.066-.058.124-.092.19-.025.067-.05.125-.066.191-.025.075-.041.141-.058.208-.008.033-.008.075-.017.108-.008.033-.008.066-.016.1 0 .066-.009.14-.009.207 0 .05 0 .1.009.149 0 .066.008.133.025.207.008.067.024.133.041.2.025.066.042.132.067.199.016.041.041.083.058.116l-1.909-.739c-.318-.09-.64-.173-.962-.248l-.523-.125c-.497-.1-1.004-.174-1.51-.224-.016 0-.024-.008-.04-.008a14.807 14.807 0 0 0-2.573-.034c-.506.034-1.012.1-1.518.183a5.89 5.89 0 0 0-.373.067c-.258.05-.507.107-.747.165l-.374.1c-.124.05-.24.108-.356.158l-.274.124c-.017.008-.033.008-.041.017-.084.041-.158.074-.233.116a3.615 3.615 0 0 0-.315.158c-.058.024-.116.057-.166.082a2.075 2.075 0 0 0-.49.29c-.058.042-.116.075-.165.117-.009.008-.017.008-.025.016-.05.034-.108.075-.158.117l-.017.016-.124.1c-.017.008-.033.025-.05.033-.041.033-.083.075-.124.108-.009.016-.025.025-.033.033-.05.05-.1.091-.15.141-.008 0-.008.008-.016.017-.05.041-.1.09-.15.14-.008.009-.008.017-.016.017a1.945 1.945 0 0 0-.125.133c-.016.017-.041.033-.058.05-.041.05-.091.1-.14.15-.01.016-.026.024-.034.04-.066.067-.124.133-.19.2l-.026.025a4.906 4.906 0 0 1-.423.406 4.768 4.768 0 0 1-.465.365c-.16.113-.326.218-.497.315a5.02 5.02 0 0 1-.523.25 6.024 6.024 0 0 1-.54.198c-.348.075-.704.216-1.011.241-.067 0-.141.017-.208.025a8.43 8.43 0 0 0-.207.05l-.2.074a1.948 1.948 0 0 0-.198.092c-.058.041-.125.074-.183.116a1.345 1.345 0 0 0-.166.14c-.058.042-.116.1-.166.15-.05.058-.1.108-.14.166-.042.066-.092.125-.125.19a1.487 1.487 0 0 0-.116.192c-.034.074-.067.14-.092.216a6.392 6.392 0 0 0-.074.215 1.697 1.697 0 0 0-.042.2c0 .008-.008.016-.008.024-.017.075-.017.175-.025.224-.008.058-.017.108-.017.166 0 .033 0 .075.009.108a.87.87 0 0 0 .033.158c.016.05.033.1.058.149v.008c.025.05.058.1.091.15.033.05.067.1.108.149.042.041.091.091.141.133.05.05.1.09.158.132.199.175.249.233.506.365.041.025.083.042.133.067.008 0 .016.008.024.008 0 .017 0 .025.009.042.008.066.025.132.041.199.017.074.042.14.067.199.024.05.041.1.066.15a.174.174 0 0 0 .025.04c.033.067.066.125.1.183l.124.174c.041.05.091.108.14.158.05.05.1.091.159.141 0 0 .008.008.016.008a1.474 1.474 0 0 0 .332.224c.058.034.125.067.19.092.05.025.109.041.167.058.008.008.016.008.033.016.033.009.075.017.108.025-.025.448-.033.871.033 1.02.075.167.44-.34.805-.92-.05.572-.083 1.244 0 1.443.091.208.589-.44 1.02-1.153 5.883-1.36 11.25 2.705 11.814 8.446-.108-.896-1.21-1.394-1.717-1.27-.249.615-.672 1.403-1.352 1.892a5.323 5.323 0 0 0-.083-1.66 5.364 5.364 0 0 1-1.03 2.092c-.787.058-1.575-.324-1.99-.896-.033-.025-.042-.075-.066-.108a1.48 1.48 0 0 1-.067-.174.687.687 0 0 1-.05-.175c-.008-.058-.008-.116-.008-.182v-.125c.008-.058.025-.116.041-.174.017-.058.034-.116.059-.174.033-.058.058-.116.099-.174.141-.399.141-.722-.116-.913a.937.937 0 0 0-.158-.083c-.033-.008-.074-.025-.108-.033-.024-.009-.041-.017-.066-.025a1.218 1.218 0 0 0-.174-.041.626.626 0 0 0-.174-.025 1.373 1.373 0 0 0-.183-.017c-.041 0-.083.008-.124.008a.65.65 0 0 0-.183.025 1.283 1.283 0 0 0-.348.091c-.058.025-.108.05-.166.075-.05.025-.1.058-.158.083-1.933 1.261-.78 4.215.54 5.07-.498.09-1.005.198-1.145.306l-.017.017c.357.216.73.398 1.12.556.53.174 1.095.332 1.344.398v.008c.687.141 1.39.191 2.09.15 3.676-.258 6.688-3.054 7.235-6.737l.05.215c.025.15.058.307.075.465v.008c.016.075.024.15.033.216v.033c.008.075.016.15.016.216.009.091.017.183.017.274v.133c0 .041.008.09.008.132 0 .05-.008.1-.008.15v.116c0 .058-.008.108-.008.166 0 .033 0 .066-.009.108 0 .058-.008.116-.008.182-.008.025-.008.05-.008.075l-.025.19c0 .026 0 .05-.009.075-.008.083-.024.158-.033.24v.017l-.05.233v.025l-.05.224c0 .008-.007.024-.007.033-.017.074-.034.15-.059.224v.025c-.024.083-.05.157-.066.232-.008.008-.008.017-.008.017l-.075.248c-.033.084-.058.158-.091.241-.033.083-.058.166-.091.24-.034.084-.067.158-.1.241h-.008c-.034.075-.067.158-.108.233a.376.376 0 0 1-.025.058c-.008.008-.008.016-.017.025a7.853 7.853 0 0 1-2.33 2.787 2.806 2.806 0 0 0-.2.141c-.017.017-.041.025-.058.042a3.359 3.359 0 0 1-.183.124l.025.05h.009l.348-.05h.008c.216-.033.432-.075.647-.116.059-.008.125-.025.183-.041l.116-.025c.058-.009.116-.025.174-.034.05-.016.1-.024.15-.041.83-.2 1.634-.473 2.406-.797a13.287 13.287 0 0 1-5.152 4.207 13.66 13.66 0 0 0 2.829-.49 13.256 13.256 0 0 0 7.84-6.263 13.239 13.239 0 0 1-2.232 5.334 13.052 13.052 0 0 0 2.215-1.842 13.15 13.15 0 0 0 3.493-7.052c.283 1.313.364 2.662.24 4 5.99-8.355.498-17.017-1.8-19.298-.008-.017-.016-.025-.016-.042-.009.009-.009.009-.009.017 0-.009 0-.009-.008-.017 0 .1-.008.2-.017.299-.024.19-.05.373-.083.556-.04.182-.09.365-.14.547-.06.18-.126.357-.2.531a6.776 6.776 0 0 1-.249.506 6.409 6.409 0 0 1-.639.92c-.124.15-.257.283-.39.416-.078.072-.158.14-.24.207-.066.059-.124.108-.19.166-.15.117-.3.224-.465.324-.158.1-.324.2-.49.282-.174.083-.348.158-.523.232a5.891 5.891 0 0 1-1.095.299 6.386 6.386 0 0 1-.962.083 6.24 6.24 0 0 1-.564-.033 4.195 4.195 0 0 1-.564-.083 4.183 4.183 0 0 1-.556-.141h-.009c.183-.017.366-.033.548-.067a6.029 6.029 0 0 0 1.095-.298c.183-.067.357-.15.523-.233.174-.082.332-.174.498-.273.157-.108.315-.216.464-.332.149-.116.29-.24.423-.374a4.4 4.4 0 0 0 .39-.406 8.15 8.15 0 0 0 .349-.448c.016-.025.033-.058.05-.083.082-.133.165-.266.24-.398a5.77 5.77 0 0 0 .448-1.037 5.7 5.7 0 0 0 .141-.54c.033-.19.067-.373.083-.556.017-.19.033-.381.033-.564 0-.132-.008-.265-.016-.398-.017-.19-.042-.373-.067-.556a6.032 6.032 0 0 0-.124-.556c-.058-.174-.116-.356-.183-.53a5.788 5.788 0 0 0-.232-.515c-.091-.166-.182-.332-.282-.49a9.214 9.214 0 0 0-.332-.456 17.527 17.527 0 0 0-.381-.423 5.158 5.158 0 0 0-.216-.207c-.372-.289-.757-.56-1.153-.813a1.518 1.518 0 0 0-.166-.083 3.227 3.227 0 0 0-.788-.349"/>
  </g>
  <defs>
    <clipPath id="a">
      <path fill="#fff" d="M0 .195h32.13v32H0z"/>
    </clipPath>
  </defs>
</svg>
