<svg width="41" height="40" viewBox="0 0 41 40" fill="none" xmlns="http://www.w3.org/2000/svg">
<g id="logos:nextjs-icon" clip-path="url(#clip0_42_182)">
<g id="Mask group">
<mask id="mask0_42_182" style="mask-type:luminance" maskUnits="userSpaceOnUse" x="0" y="0" width="41" height="40">
<g id="Group">
<path id="Vector" d="M20.5 40C31.5457 40 40.5 31.0457 40.5 20C40.5 8.9543 31.5457 0 20.5 0C9.4543 0 0.5 8.9543 0.5 20C0.5 31.0457 9.4543 40 20.5 40Z" fill="white"/>
</g>
</mask>
<g mask="url(#mask0_42_182)">
<g id="Group_2">
<path id="Vector_2" d="M20.5 40C31.5457 40 40.5 31.0457 40.5 20C40.5 8.9543 31.5457 0 20.5 0C9.4543 0 0.5 8.9543 0.5 20C0.5 31.0457 9.4543 40 20.5 40Z" fill="black"/>
<path id="Vector_3" d="M33.7241 35.0044L15.8648 12H12.5V27.9933H15.1919V15.4187L31.6109 36.6322C32.3508 36.1372 33.0567 35.5934 33.7241 35.0044Z" fill="url(#paint0_linear_42_182)"/>
<path id="Vector_4" d="M26.0556 12H28.7223V28H26.0556V12Z" fill="url(#paint1_linear_42_182)"/>
</g>
</g>
</g>
</g>
<defs>
<linearGradient id="paint0_linear_42_182" x1="1193.26" y1="1400.89" x2="1902.02" y2="2279.36" gradientUnits="userSpaceOnUse">
<stop stop-color="white"/>
<stop offset="1" stop-color="white" stop-opacity="0"/>
</linearGradient>
<linearGradient id="paint1_linear_42_182" x1="159.392" y1="12" x2="154.88" y2="1186.99" gradientUnits="userSpaceOnUse">
<stop stop-color="white"/>
<stop offset="1" stop-color="white" stop-opacity="0"/>
</linearGradient>
<clipPath id="clip0_42_182">
<rect width="40" height="40" fill="white" transform="translate(0.5)"/>
</clipPath>
</defs>
</svg>
