<svg width="40" height="40" viewBox="0 0 40 40" fill="none" xmlns="http://www.w3.org/2000/svg">
<g id="skill-icons:python-light" clip-path="url(#clip0_42_223)">
<g id="Group">
<path id="Vector" d="M30.625 0H9.375C4.19733 0 0 4.19733 0 9.375V30.625C0 35.8027 4.19733 40 9.375 40H30.625C35.8027 40 40 35.8027 40 30.625V9.375C40 4.19733 35.8027 0 30.625 0Z" fill="#F4F2ED"/>
<path id="Vector_2" d="M19.8873 4.53125C11.9542 4.53125 12.4495 7.97156 12.4495 7.97156L12.4584 11.5356H20.0289V12.6059H9.45141C9.45141 12.6059 4.375 12.03 4.375 20.0345C4.375 28.0391 8.80578 27.7555 8.80578 27.7555H11.4502V24.0409C11.4502 24.0409 11.3077 19.6102 15.8103 19.6102H23.3188C23.3188 19.6102 27.5373 19.6783 27.5373 15.533V8.67906C27.5373 8.67906 28.1778 4.53125 19.8873 4.53125ZM15.713 6.92797C15.8919 6.92782 16.0691 6.96296 16.2344 7.03135C16.3997 7.09975 16.5499 7.20007 16.6764 7.32658C16.8029 7.45308 16.9032 7.60329 16.9716 7.7686C17.04 7.93392 17.0751 8.11109 17.075 8.29C17.0751 8.46889 17.04 8.64605 16.9716 8.81135C16.9032 8.97664 16.8028 9.12683 16.6763 9.25332C16.5498 9.37981 16.3996 9.48012 16.2343 9.5485C16.069 9.61689 15.8919 9.65202 15.713 9.65188C15.5341 9.652 15.3569 9.61686 15.1917 9.54846C15.0264 9.48006 14.8762 9.37975 14.7497 9.25327C14.6232 9.12678 14.5229 8.9766 14.4545 8.81131C14.3861 8.64603 14.351 8.46888 14.3511 8.29C14.351 8.11111 14.3861 7.93394 14.4545 7.76864C14.5229 7.60334 14.6232 7.45314 14.7496 7.32663C14.8761 7.20013 15.0263 7.09981 15.1916 7.0314C15.3569 6.96299 15.5341 6.92785 15.713 6.92797Z" fill="url(#paint0_linear_42_223)"/>
<path id="Vector_3" d="M20.1127 35.6184C28.0458 35.6184 27.5505 32.1783 27.5505 32.1783L27.5416 28.614H19.9711V27.5439H30.5486C30.5486 27.5439 35.625 28.1197 35.625 20.115C35.625 12.1103 31.1942 12.3942 31.1942 12.3942H28.5499V16.1087C28.5499 16.1087 28.6924 20.5395 24.1897 20.5395H16.6813C16.6813 20.5395 12.4625 20.4712 12.4625 24.6165V31.4706C12.4625 31.4706 11.8221 35.6184 20.1127 35.6184ZM24.2871 33.2217C24.1082 33.2218 23.931 33.1867 23.7657 33.1183C23.6004 33.0499 23.4502 32.9496 23.3237 32.8231C23.1972 32.6966 23.0969 32.5465 23.0285 32.3812C22.96 32.2159 22.9249 32.0387 22.925 31.8598C22.9249 31.6809 22.96 31.5037 23.0284 31.3384C23.0968 31.1731 23.1971 31.0229 23.3236 30.8964C23.4501 30.7699 23.6003 30.6696 23.7657 30.6012C23.931 30.5328 24.1081 30.4976 24.2871 30.4978C24.466 30.4976 24.6431 30.5328 24.8084 30.6012C24.9738 30.6696 25.124 30.7699 25.2505 30.8964C25.377 31.0229 25.4773 31.1731 25.5457 31.3384C25.6141 31.5037 25.6492 31.6809 25.6491 31.8598C25.6492 32.0387 25.6141 32.2159 25.5457 32.3812C25.4772 32.5465 25.3769 32.6966 25.2504 32.8231C25.1239 32.9496 24.9737 33.0499 24.8084 33.1183C24.6431 33.1867 24.4659 33.2218 24.2871 33.2217Z" fill="url(#paint1_linear_42_223)"/>
</g>
</g>
<defs>
<linearGradient id="paint0_linear_42_223" x1="7.37812" y1="7.3275" x2="22.8645" y2="22.6594" gradientUnits="userSpaceOnUse">
<stop stop-color="#387EB8"/>
<stop offset="1" stop-color="#366994"/>
</linearGradient>
<linearGradient id="paint1_linear_42_223" x1="16.8838" y1="17.1726" x2="33.5144" y2="32.894" gradientUnits="userSpaceOnUse">
<stop stop-color="#FFE052"/>
<stop offset="1" stop-color="#FFC331"/>
</linearGradient>
<clipPath id="clip0_42_223">
<rect width="40" height="40" fill="white"/>
</clipPath>
</defs>
</svg>
