<svg xmlns="http://www.w3.org/2000/svg" width="20" height="21" fill="none" viewBox="0 0 20 21">
  <path fill="#F5DE19" d="M1.25 1.32h17.5v17.5H1.25V1.32Z"/>
  <path fill="#000" d="M13.006 14.992a1.794 1.794 0 0 0 1.625 1c.68 0 1.117-.34 1.117-.812 0-.563-.448-.764-1.198-1.092l-.411-.176c-1.188-.506-1.975-1.139-1.975-2.478 0-1.233.937-2.172 2.408-2.172a2.431 2.431 0 0 1 2.339 1.317l-1.286.822a1.119 1.119 0 0 0-1.056-.705.716.716 0 0 0-.787.705c0 .493.306.693 1.012 1l.411.176c1.397.6 2.187 1.21 2.187 2.583 0 1.48-1.163 2.292-2.724 2.292a3.162 3.162 0 0 1-2.997-1.682l1.335-.777Zm-5.81.143c.258.458.493.846 1.058.846.54 0 .882-.212.882-1.034v-5.59h1.644v5.613c0 1.703-1 2.478-2.456 2.478a2.553 2.553 0 0 1-2.466-1.5l1.338-.812Z"/>
</svg>
