<svg xmlns="http://www.w3.org/2000/svg" width="20" height="21" fill="none" viewBox="0 0 20 21">
  <path fill="#639" d="M1.247 1.317h14.7a2.8 2.8 0 0 1 2.8 2.8v11.9a2.8 2.8 0 0 1-2.8 2.8h-11.9a2.8 2.8 0 0 1-2.8-2.8v-14.7Z"/>
  <path fill="#fff" d="M5.674 15.614v-2.94c0-1.172.753-1.802 1.89-1.802 1.12-.018 1.82.717 1.785 1.96H8.054c.035-.473-.175-.823-.525-.805-.437 0-.56.297-.56.857v2.555c0 .543.175.805.56.823.403 0 .56-.403.525-.858H9.35c.07 1.278-.735 2.03-1.872 2.013-1.103 0-1.803-.613-1.803-1.803Zm4.148-.21h1.207c.018.56.193.91.578.91.385 0 .525-.227.525-.752 0-.438-.193-.683-.665-.91l-.455-.21c-.805-.385-1.138-.858-1.138-1.803 0-1.05.665-1.785 1.75-1.785s1.663.753 1.68 1.978h-1.172c0-.508-.105-.858-.49-.858-.35 0-.525.175-.525.613 0 .437.157.612.577.787l.42.193c.893.42 1.278.962 1.278 1.977 0 1.208-.683 1.873-1.803 1.873-1.12 0-1.75-.77-1.767-2.013Zm3.955 0h1.225c0 .56.192.91.56.91.367 0 .525-.227.525-.752 0-.438-.175-.683-.665-.91l-.455-.21c-.805-.385-1.12-.858-1.12-1.803 0-1.05.647-1.785 1.75-1.785 1.102 0 1.645.753 1.68 1.978h-1.173c-.017-.508-.122-.858-.507-.858-.35 0-.508.175-.508.613 0 .437.14.612.56.787l.438.193c.875.42 1.26.962 1.26 1.977 0 1.208-.683 1.873-1.803 1.873-1.12 0-1.75-.77-1.767-2.013Z"/>
</svg>
