<svg width="40" height="40" viewBox="0 0 40 40" fill="none" xmlns="http://www.w3.org/2000/svg">
<g id="vscode-icons:file-type-vite">
<g id="Group">
<path id="Vector" d="M37.355 7.6825L20.9275 37.0575C20.8504 37.1957 20.7379 37.3108 20.6016 37.3912C20.4653 37.4716 20.3101 37.5143 20.1518 37.5149C19.9936 37.5155 19.8381 37.4741 19.7011 37.3948C19.5642 37.3155 19.4508 37.2013 19.3725 37.0637L2.62002 7.685C2.53579 7.53759 2.49536 7.36922 2.50346 7.19964C2.51156 7.03006 2.56786 6.8663 2.66576 6.7276C2.76366 6.58889 2.89908 6.48098 3.05615 6.41653C3.21322 6.35209 3.38541 6.33378 3.55252 6.36375L19.9975 9.30375C20.1021 9.32296 20.2092 9.32296 20.3138 9.30375L36.415 6.36875C36.5815 6.33833 36.7532 6.35587 36.91 6.41931C37.0669 6.48274 37.2025 6.58947 37.301 6.72705C37.3996 6.86462 37.457 7.02737 37.4665 7.19632C37.4761 7.36526 37.4374 7.5347 37.355 7.6825Z" fill="url(#paint0_linear_42_344)"/>
<path id="Vector_2" d="M27.8301 2.50874L15.6751 4.88999C15.578 4.90959 15.4902 4.96062 15.4251 5.0352C15.36 5.10977 15.3214 5.20372 15.3151 5.30249L14.5676 17.9325C14.5634 18.0018 14.5755 18.0711 14.6029 18.1349C14.6302 18.1987 14.6721 18.2552 14.7251 18.3C14.7782 18.3448 14.8409 18.3766 14.9084 18.3928C14.9759 18.4091 15.0462 18.4094 15.1138 18.3937L18.4976 17.6125C18.5705 17.5957 18.6464 17.5974 18.7185 17.6176C18.7905 17.6378 18.8563 17.6758 18.9098 17.7281C18.9634 17.7803 19.0029 17.8452 19.0248 17.9168C19.0466 17.9883 19.0502 18.0642 19.0351 18.1375L18.0301 23.0612C18.0146 23.137 18.019 23.2156 18.043 23.2891C18.067 23.3627 18.1097 23.4287 18.167 23.4808C18.2242 23.5329 18.294 23.5691 18.3695 23.5861C18.445 23.6031 18.5236 23.6001 18.5976 23.5775L20.6876 22.9425C20.7617 22.9198 20.8404 22.9168 20.916 22.9338C20.9917 22.9508 21.0616 22.9872 21.1188 23.0395C21.1761 23.0917 21.2188 23.1579 21.2427 23.2317C21.2666 23.3054 21.2708 23.3841 21.2551 23.46L19.6563 31.1937C19.5563 31.6775 20.2001 31.9412 20.4688 31.5275L20.6476 31.25L30.5538 11.4812C30.591 11.4068 30.6066 11.3234 30.5989 11.2405C30.5911 11.1576 30.5604 11.0785 30.51 11.0122C30.4597 10.9458 30.3918 10.8949 30.3141 10.8652C30.2363 10.8354 30.1518 10.828 30.0701 10.8437L26.5863 11.515C26.5113 11.5293 26.4339 11.5242 26.3615 11.5001C26.289 11.476 26.224 11.4337 26.1726 11.3772C26.1211 11.3208 26.0851 11.2521 26.0678 11.1778C26.0505 11.1034 26.0526 11.0258 26.0738 10.9525L28.3463 3.06999C28.3677 2.99642 28.3698 2.91858 28.3524 2.84395C28.335 2.76933 28.2987 2.70045 28.247 2.64393C28.1952 2.58741 28.1298 2.54518 28.057 2.52128C27.9842 2.49738 27.9065 2.49264 27.8313 2.50749" fill="url(#paint1_linear_42_344)"/>
</g>
</g>
<defs>
<linearGradient id="paint0_linear_42_344" x1="2.21067" y1="5.31358" x2="22.6546" y2="33.0781" gradientUnits="userSpaceOnUse">
<stop stop-color="#41D1FF"/>
<stop offset="1" stop-color="#BD34FE"/>
</linearGradient>
<linearGradient id="paint1_linear_42_344" x1="19.0525" y1="3.15472" x2="22.7507" y2="28.5241" gradientUnits="userSpaceOnUse">
<stop stop-color="#FFEA83"/>
<stop offset="0.083" stop-color="#FFDD35"/>
<stop offset="1" stop-color="#FFA800"/>
</linearGradient>
</defs>
</svg>
