<svg xmlns="http://www.w3.org/2000/svg" width="20" height="21" fill="none" viewBox="0 0 20 21">
  <path fill="#E44F26" d="M3.689 17.071 2.284 1.321h15.432l-1.407 15.748-6.318 1.752-6.302-1.75Z"/>
  <path fill="#F1662A" d="m10 17.482 5.106-1.416L16.308 2.61H10v14.873Z"/>
  <path fill="#EBEBEB" d="M10 8.45H7.444l-.176-1.978H10V4.54H5.156l.046.519.475 5.323H10V8.45Zm0 5.017-.009.002-2.151-.58-.138-1.54H5.763l.27 3.032 3.958 1.098.009-.002v-2.01Z"/>
  <path fill="#fff" d="M9.993 8.45v1.932h2.379l-.224 2.505-2.155.582v2.01l3.96-1.098.03-.327.453-5.085.048-.519h-4.49Zm0-3.91v1.932h4.666l.04-.434.087-.98.046-.518H9.993Z"/>
</svg>
