<svg xmlns="http://www.w3.org/2000/svg" width="32" height="33" fill="none" viewBox="0 0 32 33">
  <path fill="url(#a)" d="M15.124 5.495a.832.832 0 1 1 1.664 0 .832.832 0 0 1-1.664 0ZM5.2 13.03a.832.832 0 1 1 1.664 0 .832.832 0 0 1-1.664 0Zm19.856.04a.832.832 0 1 1 1.664 0 .832.832 0 0 1-1.664 0ZM7.605 14.21a.76.76 0 0 0 .386-1l-.369-.836h1.452v6.545h-2.93a10.3 10.3 0 0 1-.332-3.91l1.793-.8Zm6.074.16v-1.93h3.458c.179 0 1.261.206 1.261 1.016 0 .672-.83.913-1.513.913h-3.206ZM8.958 24.756a.832.832 0 1 1 1.664 0 .832.832 0 0 1-1.664 0Zm12.331.04a.832.832 0 1 1 1.664 0 .832.832 0 0 1-1.664 0Zm.257-1.888a.76.76 0 0 0-.9.584l-.418 1.95a10.25 10.25 0 0 1-8.545-.042l-.417-1.949a.76.76 0 0 0-.9-.583l-1.721.37a9.995 9.995 0 0 1-.89-1.049h8.374c.095 0 .158-.017.158-.1v-2.966c0-.086-.063-.1-.158-.1h-2.45v-1.88h2.649a1.666 1.666 0 0 1 1.629 1.411c.105.413.336 1.757.494 2.187.157.483.8 1.447 1.482 1.447h4.323c-.29.39-.606.757-.949 1.1l-1.761-.38Zm4.65-7.82c.059.59.066 1.186.022 1.778h-1.051c-.105 0-.148.07-.148.172v.483c0 1.136-.641 1.384-1.2 1.447-.535.06-1.128-.224-1.2-.55a3.62 3.62 0 0 0-1.671-2.809c1.03-.654 2.1-1.619 2.1-2.91a3.29 3.29 0 0 0-1.608-2.704 4.56 4.56 0 0 0-2.2-.724H8.367A10.25 10.25 0 0 1 14.1 6.035l1.282 1.344a.76.76 0 0 0 1.072.026l1.434-1.372a10.25 10.25 0 0 1 7.015 5l-.982 2.217a.76.76 0 0 0 .386 1l1.889.837Zm2.448.035-.033-.343 1.011-.943a.42.42 0 0 0-.134-.676l-1.288-.483-.1-.334.806-1.12a.42.42 0 0 0-.263-.636l-1.363-.222-.164-.306.573-1.257a.42.42 0 0 0-.382-.573l-1.383.048-.224-.264.318-1.347a.42.42 0 0 0-.487-.487l-1.348.315-.266-.219.049-1.38a.421.421 0 0 0-.572-.384l-1.257.573-.306-.164-.222-1.363a.42.42 0 0 0-.633-.263l-1.121.806-.333-.1-.483-1.293a.42.42 0 0 0-.675-.135l-.946 1.012-.343-.033-.728-1.177a.42.42 0 0 0-.688 0l-.728 1.177-.343.033-.943-1.012a.42.42 0 0 0-.675.135l-.487 1.287-.333.1-1.12-.8a.42.42 0 0 0-.636.263l-.222 1.363-.306.164-1.258-.573a.42.42 0 0 0-.572.383l.048 1.383-.266.217-1.347-.316a.42.42 0 0 0-.487.487L6.3 8.014l-.218.265L4.7 8.231a.422.422 0 0 0-.383.573l.573 1.257-.164.306-1.363.222a.42.42 0 0 0-.263.633l.806 1.12-.1.334-1.293.483a.422.422 0 0 0-.134.676l1.011.943-.033.343-1.177.728a.42.42 0 0 0 0 .688l1.177.728.033.343-1.011.943a.42.42 0 0 0 .134.675l1.293.483.1.334-.806 1.124a.42.42 0 0 0 .264.636l1.363.222.164.307-.573 1.257a.42.42 0 0 0 .383.573l1.383-.048.219.266-.317 1.348a.42.42 0 0 0 .487.486l1.345-.319.266.218-.049 1.382a.42.42 0 0 0 .572.382l1.257-.573.306.164.222 1.362a.42.42 0 0 0 .633.264l1.12-.807.334.1.483 1.292a.42.42 0 0 0 .675.134l.943-1.01.343.033.728 1.177a.42.42 0 0 0 .688 0l.728-1.177.343-.034.943 1.011a.42.42 0 0 0 .675-.134l.483-1.292.334-.1 1.12.807a.42.42 0 0 0 .636-.264l.222-1.362.306-.164 1.257.573a.418.418 0 0 0 .572-.382l-.048-1.384.265-.218 1.347.317a.42.42 0 0 0 .487-.486l-.309-1.346.218-.266 1.383.048a.421.421 0 0 0 .382-.573l-.573-1.257.164-.307 1.363-.222a.42.42 0 0 0 .263-.635l-.806-1.12.1-.334 1.293-.483a.42.42 0 0 0 .134-.675l-1.011-.943.033-.343 1.177-.728a.42.42 0 0 0 0-.688l-1.176-.729Z"/>
  <defs>
    <radialGradient id="a" cx="0" cy="0" r="1" gradientTransform="matrix(12.12228 -6.999 4.20182 7.27756 16.015 16.532)" gradientUnits="userSpaceOnUse">
      <stop stop-color="#7D7D7D"/>
      <stop offset=".267" stop-color="#7E7C7A"/>
      <stop offset=".45" stop-color="#817871"/>
      <stop offset=".608" stop-color="#867162"/>
      <stop offset=".753" stop-color="#8D684C"/>
      <stop offset=".886" stop-color="#965C30"/>
      <stop offset="1" stop-color="#A04F12"/>
    </radialGradient>
  </defs>
</svg>
